<?xml version="1.0" encoding="UTF-8"?>
<svg version="1.1" xmlns="http://www.w3.org/2000/svg" width="1500" height="1500">
<path d="M0 0 C1.66621616 0.03874921 3.33394172 0.0450286 5 0 C55 0 55 0 61 1 C63.84734644 1.14367394 63.84734644 1.14367394 65.875 0.4375 C68.51831862 -0.10671266 70.37668975 0.42415141 73 1 C74.66617115 1.04063832 76.33388095 1.042721 78 1 C81.17043267 1 83.05663297 1.24042141 86 2 C86.99 2 87.98 2 89 2 C89.36809816 6.5398773 89.36809816 6.5398773 87.75 8.5625 C87.1725 9.036875 86.595 9.51125 86 10 C85.319375 10.680625 84.63875 11.36125 83.9375 12.0625 C52.625 43.375 21.3125 74.6875 -10 106 C-10.639375 106.845625 -11.27875 107.69125 -11.9375 108.5625 C-14 111 -14 111 -17 112 C-18.34270821 113.99371825 -19.67653494 115.9934562 -21 118 C-21.66 118 -22.32 118 -23 118 C-23.66 118.99 -24.32 119.98 -25 121 C-25.66 121.99 -26.32 122.98 -27 124 C-27.66 124 -28.32 124 -29 124 C-29.66 124.99 -30.32 125.98 -31 127 C-31.66 127.99 -32.32 128.98 -33 130 C-33.66 130 -34.32 130 -35 130 C-35.66 130.99 -36.32 131.98 -37 133 C-37.66 133.99 -38.32 134.98 -39 136 C-39.66 136 -40.32 136 -41 136 C-41.66 136.99 -42.32 137.98 -43 139 C-43.66 139.99 -44.32 140.98 -45 142 C-45.66 142 -46.32 142 -47 142 C-47.66 142.99 -48.32 143.98 -49 145 C-49.66 145.99 -50.32 146.98 -51 148 C-51.66 148 -52.32 148 -53 148 C-54.36639342 149.6396721 -55.6949419 151.31110128 -57 153 C-58.31387169 154.35251497 -59.64426252 155.68945377 -61 157 C-61.66 157.66 -62.32 158.32 -63 159 C-129 225 -195 291 -429 525 C-429.639375 525.845625 -430.27875 526.69125 -430.9375 527.5625 C-433 530 -433 530 -436 531 C-437.34270821 532.99371825 -438.67653494 534.9934562 -440 537 C-440.66 537 -441.32 537 -442 537 C-442.66 537.99 -443.32 538.98 -444 540 C-444.66 540.99 -445.32 541.98 -446 543 C-446.66 543 -447.32 543 -448 543 C-448.66 543.99 -449.32 544.98 -450 546 C-450.66 546.99 -451.32 547.98 -452 549 C-452.66 549 -453.32 549 -454 549 C-454.66 549.99 -455.32 550.98 -456 552 C-456.66 552.99 -457.32 553.98 -458 555 C-458.66 555 -459.32 555 -460 555 C-460.66 555.99 -461.32 556.98 -462 558 C-462.66 558.99 -463.32 559.98 -464 561 C-464.66 561 -465.32 561 -466 561 C-466.66 561.99 -467.32 562.98 -468 564 C-468.66 564.99 -469.32 565.98 -470 567 C-470.66 567 -471.32 567 -472 567 C-473.36639342 568.6396721 -474.6949419 570.31110128 -476 572 C-477.31387169 573.35251497 -478.64426252 574.68945377 -480 576 C-480.66 576.66 -481.32 577.32 -482 578 C-590.8 686.8 -590.8 686.8 -594 689 C-594.66 689 -595.32 689 -596 689 C-595.9175 688.030625 -595.835 687.06125 -595.75 686.0625 C-595.72301418 682.7230049 -596.54341461 680.4901031 -598 677.5 C-599.95728671 673.44807313 -600.25220454 670.53968173 -600 666 C-600.37556893 662.43209521 -600.88598066 659.32864397 -602.0625 655.9375 C-603.06626288 652.79237632 -603 650.27518361 -603 647 C-603.99 645.515 -603.99 645.515 -605 644 C-605.04166002 641.6670386 -605.04166002 639.3329614 -605 637 C-605.495 635.515 -605.495 635.515 -606 634 C-606.17915828 632.02357131 -606.31983817 630.04354108 -606.4375 628.0625 C-606.89034638 621.61483018 -607.85964563 615.35607354 -609 609 C-609.54038498 605.64961314 -610.01280533 602.57623963 -609.9375 599.1875 C-609.99321342 596.34611574 -610.37312864 594.1235898 -611 591.375 C-611.99627413 586.67230742 -612.09654056 582.32353184 -612.00390625 577.53125 C-611.99910818 573.19379258 -612.2437683 568.89115295 -612.5 564.5625 C-612.87551695 558.10778783 -613.0406628 551.70909172 -612.96728516 545.24145508 C-612.99896437 542.10261264 -613.21137124 539.03956232 -613.4921875 535.9140625 C-614.01917053 529.34725802 -614.1538884 522.83557541 -614.125 516.25 C-614.12089111 515.07228027 -614.11678223 513.89456055 -614.11254883 512.68115234 C-613.995691 493.93615218 -612.95150485 475.2677949 -611.75772095 456.56561279 C-611.62858707 454.53778492 -611.50141911 452.5098308 -611.37631226 450.48175049 C-611.19711097 447.60188041 -611.00810383 444.72281224 -610.81640625 441.84375 C-610.76426971 440.9852243 -610.71213318 440.12669861 -610.65841675 439.24215698 C-610.31988592 434.34419122 -609.592368 429.73191778 -608.45225525 424.95703125 C-607.93299908 422.71006883 -607.63405054 420.50004804 -607.4375 418.203125 C-607.36394287 417.39560791 -607.29038574 416.58809082 -607.21459961 415.75610352 C-607.1083728 414.51558228 -607.1083728 414.51558228 -607 413.25 C-606.20395872 404.65610093 -605.23627251 396.13517074 -603.52954102 387.6652832 C-602.60270497 383.00033663 -601.81438409 378.31065919 -601 373.625 C-600.82210937 372.60921875 -600.64421875 371.5934375 -600.4609375 370.546875 C-599.56058288 365.37319549 -598.7036672 360.20420532 -598 355 C-597.34 355 -596.68 355 -596 355 C-595.87882813 353.94941406 -595.75765625 352.89882813 -595.6328125 351.81640625 C-593.50546939 333.80160971 -593.50546939 333.80160971 -590.52734375 326.28125 C-588.92598588 322.0745817 -588.15497693 317.93928806 -587.5 313.5 C-586.74019575 308.35021564 -585.65035418 303.76516146 -583.72216797 298.92382812 C-582.62900055 296.01167152 -581.97632309 293.03461984 -581.3125 290 C-581.06113281 288.865625 -580.80976562 287.73125 -580.55078125 286.5625 C-580.36902344 285.716875 -580.18726563 284.87125 -580 284 C-579.34 284 -578.68 284 -578 284 C-577.89429688 282.86433594 -577.78859375 281.72867187 -577.6796875 280.55859375 C-577.08647074 275.82847063 -575.70267071 271.54539361 -574.125 267.0625 C-573.86847656 266.31548828 -573.61195313 265.56847656 -573.34765625 264.79882812 C-572.83053808 263.29294882 -572.31077249 261.78797597 -571.78833008 260.28393555 C-569.98638295 255.06336715 -568.26278452 249.8169237 -566.5625 244.5625 C-565.50691019 241.38473485 -564.32989437 238.2866753 -563.0625 235.1875 C-561.1256791 230.44154955 -559.52621838 225.61774973 -557.9375 220.74609375 C-557 218 -557 218 -555.4375 214.375 C-553.85494602 210.65943847 -552.787844 206.93532613 -551.74609375 203.0390625 C-551 201 -551 201 -549 200 C-548.30367782 198.17142284 -547.69218868 196.31016015 -547.125 194.4375 C-545.70678199 189.98777509 -544.12099768 185.92042727 -541.9375 181.80078125 C-540.45078135 178.94504252 -539.26107021 175.96077354 -538 173 C-537 171 -536 169 -535 167 C-534.505 165.845 -534.01 164.69 -533.5 163.5 C-532.54909016 161.28121037 -531.53457832 159.0877735 -530.4375 156.9375 C-528.92575194 154.02793972 -528.92575194 154.02793972 -528 150.875 C-526.99959579 147.99883791 -525.81784125 146.39955044 -524 144 C-522.99515117 141.66875071 -521.99477753 139.33556463 -521 137 C-520.34 136.34 -519.68 135.68 -519 135 C-517.93043146 132.27195068 -517.02305493 129.5065051 -516.09765625 126.7265625 C-515.02311175 124.05740927 -513.75915271 122.24964033 -512 120 C-511.54625 118.865625 -511.0925 117.73125 -510.625 116.5625 C-508.50920989 111.92403706 -506.08732336 109.04366168 -501.5 106.75 C-499 106 -499 106 -496.3125 105.5 C-493.81807085 105.17920507 -493.81807085 105.17920507 -492 103 C-489.27050477 101.9912735 -486.59109193 101.13135376 -483.75 100.5 C-481.76122556 100.08498751 -481.76122556 100.08498751 -480 98 C-479.01 98 -478.02 98 -477 98 C-476.34 97.34 -475.68 96.68 -475 96 C-473.02015519 95.27566653 -471.01416562 94.62256028 -469 94 C-464.72440277 92.65383701 -460.64275973 91.32137986 -456.625 89.3125 C-454 88 -454 88 -451 88 C-450.34 87.34 -449.68 86.68 -449 86 C-447.08984375 85.65625 -447.08984375 85.65625 -444.9375 85.5 C-443.638125 85.335 -442.33875 85.17 -441 85 C-440.67 84.34 -440.34 83.68 -440 83 C-437.68060793 82.2863409 -435.34476551 81.6252708 -433 81 C-432.175 80.67 -431.35 80.34 -430.5 80 C-428 79 -428 79 -424.3125 78 C-420.95649429 77.27154483 -420.95649429 77.27154483 -419 75 C-416.66666667 74.66666667 -414.33333333 74.33333333 -412 74 C-411.34 73.34 -410.68 72.68 -410 72 C-407.67684969 71.2986716 -405.34210921 70.63514826 -403 70 C-400.59467823 69.09132289 -398.29804409 68.14902205 -396 67 C-395.01 67.33 -394.02 67.66 -393 68 C-392.67 67.34 -392.34 66.68 -392 66 C-389.68060793 65.2863409 -387.34476551 64.6252708 -385 64 C-382.59467823 63.09132289 -380.29804409 62.14902205 -378 61 C-377.01 61.33 -376.02 61.66 -375 62 C-374.67 61.34 -374.34 60.68 -374 60 C-371.66624223 59.25319751 -369.37025043 58.60316512 -367 58 C-363.64216949 57.05745109 -360.30876241 56.1029208 -357 55 C-348 52 -348 52 -345 52 C-344.34 51.34 -343.68 50.68 -343 50 C-341.0444963 49.76799109 -339.0883175 49.54004165 -337.12890625 49.34375 C-334.54444453 48.92644242 -332.4096755 47.876341 -330.05859375 46.7578125 C-326.42186805 45.41905579 -322.59574288 45.04307189 -318.76953125 44.52734375 C-316.12098635 44.02303689 -314.36003754 43.24288862 -312 42 C-310.57400894 41.62043861 -309.13478124 41.28791385 -307.6875 41 C-300.65520793 39.57974241 -300.65520793 39.57974241 -294 37 C-293.01 37.33 -292.02 37.66 -291 38 C-290.67 37.34 -290.34 36.68 -290 36 C-287.5234375 35.4375 -287.5234375 35.4375 -284.375 35 C-279.74904787 34.30226138 -275.45805762 33.39314301 -271 32 C-269.06626105 31.50275284 -267.12833539 31.03097751 -265.1875 30.5625 C-263.34166872 30.08785767 -261.51205171 29.55080806 -259.6875 29 C-256.11381201 28.03086427 -252.66752866 27.47542038 -249 27 C-245.91908682 26.43246336 -242.86888853 25.74764489 -239.8125 25.0625 C-235.74016976 24.15229374 -231.65787712 23.31159709 -227.5625 22.51171875 C-225.78797052 22.15735387 -224.01723945 21.78362516 -222.25 21.39453125 C-221.363125 21.20246094 -220.47625 21.01039063 -219.5625 20.8125 C-218.75941406 20.63332031 -217.95632813 20.45414063 -217.12890625 20.26953125 C-215 20 -215 20 -212 21 C-211.67 20.34 -211.34 19.68 -211 19 C-208.89542083 19 -206.78901127 19.0114048 -204.6875 19.125 C-201.25523742 18.96535988 -198.29331746 17.9652827 -195 17 C-192.67085177 16.63858045 -190.33746522 16.30300475 -188 16 C-185.20310555 15.49147374 -182.70222868 14.90074289 -180 14 C-179.34 14.33 -178.68 14.66 -178 15 C-177.360625 14.67 -176.72125 14.34 -176.0625 14 C-174 13 -174 13 -171 14 C-169.35723008 13.53063717 -167.71581387 13.05531385 -166.0859375 12.54296875 C-162.13436298 11.51437538 -158.0572465 11.34921527 -154 11 C-148.7970016 10.45697872 -148.7970016 10.45697872 -143.6875 9.375 C-142 9 -142 9 -139 10 C-138.67 9.34 -138.34 8.68 -138 8 C-137.01 8.33 -136.02 8.66 -135 9 C-132.18859911 8.57828987 -129.70119513 7.90039838 -127 7 C-124.83323318 7 -122.66609003 7.00834775 -120.5 7.0625 C-118.07018306 7.09581358 -118.07018306 7.09581358 -116.0625 6.5 C-113.35051733 5.84254966 -110.78873492 6 -108 6 C-106.4840625 5.7834375 -106.4840625 5.7834375 -104.9375 5.5625 C-100.32768237 4.90395462 -95.73066562 4.59016303 -91.0859375 4.28125 C-88.03424882 4.06521017 -88.03424882 4.06521017 -85.2265625 3.40625 C-83 3 -83 3 -81 4 C-78.6618385 3.70241581 -76.32817964 3.36760731 -74 3 C-73.01 3 -72.02 3 -71 3 C-69.5459375 2.7525 -69.5459375 2.7525 -68.0625 2.5 C-65 2 -65 2 -61 2 C-60.154375 1.814375 -59.30875 1.62875 -58.4375 1.4375 C-56 1 -56 1 -53 2 C-51.65938457 1.69728039 -50.32594105 1.36162029 -49 1 C-43.33333333 1 -37.66666667 1 -32 1 C-30.5459375 0.7525 -30.5459375 0.7525 -29.0625 0.5 C-22.22944971 -0.61560005 -14.92692264 0 -8 0 C-5.13206499 -1.43396751 -3.11804577 -0.55024337 0 0 Z " fill="#00FF55" transform="translate(1171,140)"/>
<path d="M0 0 C6.15893538 6.15893538 3.33993512 26.41052322 3.50268555 34.8527832 C3.5617731 37.90001289 3.62710241 40.94705933 3.69335938 43.99414062 C4.13872259 65.25778749 4.03139041 86.48790085 3.5625 107.75 C3.54010254 108.79062592 3.51770508 109.83125183 3.49462891 110.90341187 C3.22833265 123.20839996 2.94597741 135.51253315 2.5 147.8125 C2.44694702 149.35599121 2.44694702 149.35599121 2.39282227 150.93066406 C2.33759399 152.30496582 2.33759399 152.30496582 2.28125 153.70703125 C2.23581055 154.85909058 2.23581055 154.85909058 2.18945312 156.03442383 C2 158 2 158 1 161 C0.77526267 163.0573753 0.59680976 165.11992099 0.44335938 167.18383789 C0.29815857 169.09580711 0.29815857 169.09580711 0.15002441 171.04640198 C0.1001387 171.7269269 0.05025299 172.40745182 -0.00114441 173.10859871 C-0.15747787 175.23939193 -0.31863072 177.36977162 -0.4810791 179.50010681 C-0.88345378 184.78952026 -1.2778491 190.07952238 -1.67181396 195.36956787 C-2.00514904 199.84247605 -2.34181583 204.31510762 -2.68315125 208.78741264 C-2.84214087 210.88888722 -2.99614634 212.99069041 -3.15002441 215.09254456 C-3.29522522 216.99978554 -3.29522522 216.99978554 -3.44335938 218.94555664 C-3.52694702 220.06901993 -3.61053467 221.19248322 -3.69665527 222.34999084 C-4 225 -4 225 -5 227 C-5.21951295 228.37933272 -5.39277553 229.76620177 -5.54077148 231.1550293 C-5.68113075 232.44228157 -5.68113075 232.44228157 -5.82432556 233.75553894 C-5.97122581 235.15078545 -5.97122581 235.15078545 -6.12109375 236.57421875 C-6.33647813 238.54102772 -6.55197657 240.5078242 -6.76757812 242.47460938 C-7.10310287 245.57717168 -7.43669161 248.67992458 -7.76782227 251.78295898 C-8.08870073 254.7764707 -8.41702653 257.76909773 -8.74609375 260.76171875 C-8.84200302 261.68176193 -8.93791229 262.60180511 -9.03672791 263.54972839 C-9.5926858 268.57291466 -10.54499541 273.14375599 -12 278 C-12.40143354 280.33520851 -12.75715566 282.67866743 -13.0703125 285.02734375 C-13.24433594 286.31318359 -13.41835937 287.59902344 -13.59765625 288.92382812 C-13.77355031 290.26170392 -13.94933018 291.59959474 -14.125 292.9375 C-14.30812009 294.30279799 -14.49170971 295.66803309 -14.67578125 297.03320312 C-15.12180154 300.35488053 -15.56305494 303.67711871 -16 307 C-16.66 307 -17.32 307 -18 307 C-18.05607422 307.98613281 -18.05607422 307.98613281 -18.11328125 308.9921875 C-18.76649196 318.44453071 -20.35366317 327.68111226 -22 337 C-22.66 337 -23.32 337 -24 337 C-24.05607422 338.0209375 -24.05607422 338.0209375 -24.11328125 339.0625 C-24.53673452 345.30636004 -25.31261904 351.41174902 -26.4375 357.5625 C-26.55971924 358.25279297 -26.68193848 358.94308594 -26.80786133 359.65429688 C-27.44799469 363.01842854 -28.0719736 365.1079604 -30 368 C-30.60602665 370.36195411 -30.60602665 370.36195411 -31 373 C-31.165 373.969375 -31.33 374.93875 -31.5 375.9375 C-31.665 376.948125 -31.83 377.95875 -32 379 C-32.32670903 381.00109278 -32.65977214 383.00116131 -33 385 C-33.144375 385.886875 -33.28875 386.77375 -33.4375 387.6875 C-34 390 -34 390 -36 393 C-36.63312244 395.11712534 -36.63312244 395.11712534 -37.0703125 397.44921875 C-37.24433594 398.29677734 -37.41835937 399.14433594 -37.59765625 400.01757812 C-37.77167969 400.89865234 -37.94570312 401.77972656 -38.125 402.6875 C-38.39763672 404.02651367 -38.39763672 404.02651367 -38.67578125 405.39257812 C-39.12311409 407.59392657 -39.5642764 409.79632949 -40 412 C-40.66 412 -41.32 412 -42 412 C-42.103125 413.051875 -42.20625 414.10375 -42.3125 415.1875 C-43.05194266 421.22265699 -44.56959796 427.09846705 -46 433 C-46.66 433 -47.32 433 -48 433 C-48.12117188 433.76183594 -48.24234375 434.52367187 -48.3671875 435.30859375 C-51.20792079 452.81188119 -51.20792079 452.81188119 -54 457 C-54.72009738 459.49783779 -55.38485004 461.97692401 -56 464.5 C-56.94703555 468.38432549 -57.74514234 471.61771351 -60 475 C-60.72009738 477.49783779 -61.38485004 479.97692401 -62 482.5 C-62.94703555 486.38432549 -63.74514234 489.61771351 -66 493 C-66.72009738 495.49783779 -67.38485004 497.97692401 -68 500.5 C-68.94703555 504.38432549 -69.74514234 507.61771351 -72 511 C-73.08708409 514.33344144 -74.03781164 517.69498844 -75 521.06640625 C-76 524 -76 524 -78 526 C-78.93310515 529.21119391 -79.73111284 532.42498129 -80.5 535.67773438 C-80.94418355 537.46661423 -81.46673013 539.23562663 -82 541 C-82.66 541.33 -83.32 541.66 -84 542 C-84.84181926 544.44058982 -84.84181926 544.44058982 -85.5 547.3125 C-86.36346619 550.82737051 -87.35734964 553.78908345 -89 557 C-89.71537057 559.01113614 -90.40108275 561.03298015 -91.0625 563.0625 C-91.40410156 564.10535156 -91.74570313 565.14820313 -92.09765625 566.22265625 C-92.39542969 567.13917969 -92.69320312 568.05570313 -93 569 C-93.33 569.99 -93.66 570.98 -94 572 C-94.66 572 -95.32 572 -96 572 C-96.20496094 572.91523437 -96.40992188 573.83046875 -96.62109375 574.7734375 C-96.89050781 575.96195313 -97.15992188 577.15046875 -97.4375 578.375 C-97.70433594 579.55835938 -97.97117187 580.74171875 -98.24609375 581.9609375 C-99 585 -99 585 -100 587 C-100.66 587 -101.32 587 -102 587 C-102.12117188 587.62648438 -102.24234375 588.25296875 -102.3671875 588.8984375 C-102.53476563 589.71570313 -102.70234375 590.53296875 -102.875 591.375 C-103.03742187 592.18710937 -103.19984375 592.99921875 -103.3671875 593.8359375 C-104 596 -104 596 -106 598 C-107.33333333 598.66666667 -108.66666667 599.33333333 -110 600 C-110.66 600.66 -111.32 601.32 -112 602 C-114 602.66666667 -116 603.33333333 -118 604 C-118.66 604.66 -119.32 605.32 -120 606 C-122 606.66666667 -124 607.33333333 -126 608 C-126.66 608.66 -127.32 609.32 -128 610 C-128.99 610 -129.98 610 -131 610 C-131.66 610.66 -132.32 611.32 -133 612 C-136.00721587 613.97843149 -138.52803672 615.1619399 -142 616 C-142.66 616.66 -143.32 617.32 -144 618 C-146 618.66666667 -148 619.33333333 -150 620 C-150.66 620.66 -151.32 621.32 -152 622 C-152.99 622 -153.98 622 -155 622 C-155.66 622.66 -156.32 623.32 -157 624 C-160.18171498 625.81812285 -163.53408004 626.84469335 -167 628 C-167.70125 628.350625 -168.4025 628.70125 -169.125 629.0625 C-171 630 -171 630 -173.125 630.5 C-175.22679483 630.89277065 -175.22679483 630.89277065 -177 633 C-178.60412874 633.71543024 -180.23301488 634.37633799 -181.875 635 C-184.34981207 635.94559983 -186.74187852 636.86490839 -189.08984375 638.09375 C-191 639 -191 639 -194.6875 639.5 C-195.780625 639.665 -196.87375 639.83 -198 640 C-198.33 640.66 -198.66 641.32 -199 642 C-202.14381429 643.86300106 -205.53152091 644.89303859 -209 646 C-209.99 646.33 -210.98 646.66 -212 647 C-212.99 647 -213.98 647 -215 647 C-215.33 647.66 -215.66 648.32 -216 649 C-218.31470912 649.72870472 -220.6505947 650.39239518 -223 651 C-226.0745356 651.7763932 -226.0745356 651.7763932 -228 654 C-230.33333333 654.33333333 -232.66666667 654.66666667 -235 655 C-235.66 655.66 -236.32 656.32 -237 657 C-239.33333333 657.33333333 -241.66666667 657.66666667 -244 658 C-244.66 658.66 -245.32 659.32 -246 660 C-247.66128463 660.35919668 -249.32900023 660.68911632 -251 661 C-252.67540664 661.64438717 -254.34183216 662.31246699 -256 663 C-259.65381616 664.29405989 -263.19060802 665.2982699 -267 666 C-269.97806378 666.59561276 -270.78414118 666.78414118 -273 669 C-275.09375 669.59765625 -275.09375 669.59765625 -277.5 670.0625 C-280.85459814 670.71952131 -280.85459814 670.71952131 -284 672 C-284.99 671.67 -285.98 671.34 -287 671 C-287.33 671.66 -287.66 672.32 -288 673 C-290.06265822 673.3911938 -292.09443267 673.50674519 -294.1875 673.65625 C-294.785625 673.7696875 -295.38375 673.883125 -296 674 C-296.33 674.66 -296.66 675.32 -297 676 C-297.99 675.67 -298.98 675.34 -300 675 C-300.33 675.66 -300.66 676.32 -301 677 C-302.92866812 677.26602319 -304.85940323 677.52318737 -306.796875 677.71484375 C-308.91683733 677.98923604 -310.83066613 678.44834087 -312.875 679.0625 C-316 680 -316 680 -318 680 C-318.66 680.66 -319.32 681.32 -320 682 C-321.95392036 682.26493835 -323.90946486 682.52263327 -325.87109375 682.72265625 C-328.21523059 682.97365508 -328.21523059 682.97365508 -331.25 683.9375 C-335.47963297 685.13589601 -339.67903975 685.80959837 -344.015625 686.5 C-347.30761888 687.05153824 -350.54168918 687.75015534 -353.79296875 688.5 C-357.0075202 689.22825236 -360.23911758 689.86226048 -363.47265625 690.5 C-365.12748981 690.82738593 -366.78120215 691.16050381 -368.43359375 691.5 C-373.02684551 692.44069796 -377.61847767 693.26810511 -382.25 694 C-385.52175051 694.52431899 -388.35009014 695.11878058 -391.5 696.1875 C-394 697 -394 697 -395.89453125 696.49609375 C-398.36463584 695.91408395 -399.75040001 696.22688233 -402.1875 696.875 C-406.78160789 697.99716734 -411.30072228 698.5417371 -416 699 C-421.01762539 699.50964727 -421.01762539 699.50964727 -425.9453125 700.52734375 C-428.21931019 701.05044968 -430.2320776 701.09798867 -432.5625 701.0625 C-433.32691406 701.05347656 -434.09132813 701.04445313 -434.87890625 701.03515625 C-435.92884766 701.01775391 -435.92884766 701.01775391 -437 701 C-439.81662802 701 -442.01692274 701.38887713 -444.75 702 C-448.91082338 702.86253565 -452.73681913 703.17400738 -457 703 C-462.85477477 703 -468.73939022 703.59631968 -474.5 704.625 C-477 705 -477 705 -480 704 C-481.33568021 704.32380126 -482.66923011 704.65657551 -484 705 C-484.66 704.67 -485.32 704.34 -486 704 C-486.99 704.33 -487.98 704.66 -489 705 C-489.99 704.67 -490.98 704.34 -492 704 C-493.33385826 704.33122655 -494.66707533 704.66503626 -496 705 C-498.35325778 705.06864813 -500.70834657 705.08477905 -503.0625 705.0625 C-504.29097656 705.05347656 -505.51945313 705.04445313 -506.78515625 705.03515625 C-508.37650391 705.01775391 -508.37650391 705.01775391 -510 705 C-512.84734644 704.85632606 -512.84734644 704.85632606 -514.875 705.5625 C-517 706 -517 706 -519.15234375 705.52734375 C-523.34670995 704.75060927 -527.48375331 704.95798386 -531.73632812 705.0390625 C-536.8009293 705.09953535 -536.8009293 705.09953535 -539 704 C-539.99 704.33 -540.98 704.66 -542 705 C-543.67422986 704.70700977 -545.34178227 704.37309899 -547 704 C-549.84734644 703.85632606 -549.84734644 703.85632606 -551.875 704.5625 C-554.54656524 705.11252814 -556.35332567 704.63016055 -559 704 C-562.07879334 703.4458172 -564.86920267 703 -568 703 C-574.41786417 703 -580.63111641 702.8759172 -587 702.0625 C-587.7115625 701.97548828 -588.423125 701.88847656 -589.15625 701.79882812 C-592.50506847 701.37710192 -595.73388683 700.83920963 -599 700 C-600.79178779 700 -602.58383232 700.01536401 -604.375 700.0625 C-607.05947455 699.99858394 -609.36700024 699.52659995 -612 699 C-613.62360093 698.82021455 -615.24884467 698.65498909 -616.875 698.5 C-628.21641126 697.40298849 -628.21641126 697.40298849 -631.1875 695.875 C-632.98399539 694.76926687 -632.98399539 694.76926687 -635 695.5 C-637.66214024 696.16553506 -638.65241764 695.28738388 -641 694 C-642.7921511 694 -644.58532596 694.03080663 -646.375 694.125 C-649 694 -649 694 -651.1875 693.0625 C-654.69193061 691.73860399 -657.97750088 691.52295206 -661.6953125 691.24609375 C-664 691 -664 691 -667 690 C-668.175625 690.061875 -668.175625 690.061875 -669.375 690.125 C-672 690 -672 690 -674.5 688.4375 C-676.9160391 686.70814135 -676.9160391 686.70814135 -679.6875 687.375 C-680.450625 687.58125 -681.21375 687.7875 -682 688 C-682.66 687.67 -683.32 687.34 -684 687 C-683.67 685.02 -683.34 683.04 -683 681 C-682.34 681 -681.68 681 -681 681 C-678.44223777 678.64416636 -676.17231104 676.2153888 -674 673.5 C-671.8319948 670.7899935 -669.48335462 668.42278499 -667 666 C-666.175 665.154375 -665.35 664.30875 -664.5 663.4375 C-662.10821597 661.10551057 -659.60605661 659.08484529 -657 657 C-654.48020356 654.60312046 -652.17275467 652.21594333 -650 649.5 C-647.8319948 646.7899935 -645.48335462 644.42278499 -643 642 C-642.175 641.154375 -641.35 640.30875 -640.5 639.4375 C-638.10821597 637.10551057 -635.60605661 635.08484529 -633 633 C-630.48020356 630.60312046 -628.17275467 628.21594333 -626 625.5 C-623.8319948 622.7899935 -621.48335462 620.42278499 -619 618 C-618.175 617.154375 -617.35 616.30875 -616.5 615.4375 C-614.10821597 613.10551057 -611.60605661 611.08484529 -609 609 C-606.48020356 606.60312046 -604.17275467 604.21594333 -602 601.5 C-599.8319948 598.7899935 -597.48335462 596.42278499 -595 594 C-594.175 593.154375 -593.35 592.30875 -592.5 591.4375 C-590.10821597 589.10551057 -587.60605661 587.08484529 -585 585 C-582.48020356 582.60312046 -580.17275467 580.21594333 -578 577.5 C-575.8319948 574.7899935 -573.48335462 572.42278499 -571 570 C-570.175 569.154375 -569.35 568.30875 -568.5 567.4375 C-566.10821597 565.10551057 -563.60605661 563.08484529 -561 561 C-558.48020356 558.60312046 -556.17275467 556.21594333 -554 553.5 C-551.8319948 550.7899935 -549.48335462 548.42278499 -547 546 C-546.175 545.154375 -545.35 544.30875 -544.5 543.4375 C-542.10821597 541.10551057 -539.60605661 539.08484529 -537 537 C-534.48020356 534.60312046 -532.17275467 532.21594333 -530 529.5 C-527.8319948 526.7899935 -525.48335462 524.42278499 -523 522 C-522.175 521.154375 -521.35 520.30875 -520.5 519.4375 C-518.10821597 517.10551057 -515.60605661 515.08484529 -513 513 C-510.48020356 510.60312046 -508.17275467 508.21594333 -506 505.5 C-503.8319948 502.7899935 -501.48335462 500.42278499 -499 498 C-498.175 497.154375 -497.35 496.30875 -496.5 495.4375 C-494.10821597 493.10551057 -491.60605661 491.08484529 -489 489 C-486.16833177 486.37552701 -483.99339349 483.98989593 -481.875 480.75 C-480 478 -480 478 -477 477 C-475.62926214 475.36395804 -474.29944744 473.69321939 -473 472 C-471.68612831 470.64748503 -470.35573748 469.31054623 -469 468 C-468.34 467.34 -467.68 466.68 -467 466 C-310.81944444 309.81944444 -310.81944444 309.81944444 -307.6875 307.1875 C-303.81324078 303.87589253 -300.19141455 300.48926819 -297 296.5 C-294.8319948 293.7899935 -292.48335462 291.42278499 -290 289 C-289.175 288.154375 -288.35 287.30875 -287.5 286.4375 C-285.10821597 284.10551057 -282.60605661 282.08484529 -280 280 C-277.48020356 277.60312046 -275.17275467 275.21594333 -273 272.5 C-270.8319948 269.7899935 -268.48335462 267.42278499 -266 265 C-265.175 264.154375 -264.35 263.30875 -263.5 262.4375 C-261.10821597 260.10551057 -258.60605661 258.08484529 -256 256 C-253.48020356 253.60312046 -251.17275467 251.21594333 -249 248.5 C-246.8319948 245.7899935 -244.48335462 243.42278499 -242 241 C-241.175 240.154375 -240.35 239.30875 -239.5 238.4375 C-237.10821597 236.10551057 -234.60605661 234.08484529 -232 232 C-229.48020356 229.60312046 -227.17275467 227.21594333 -225 224.5 C-222.8319948 221.7899935 -220.48335462 219.42278499 -218 217 C-217.175 216.154375 -216.35 215.30875 -215.5 214.4375 C-213.10821597 212.10551057 -210.60605661 210.08484529 -208 208 C-205.48020356 205.60312046 -203.17275467 203.21594333 -201 200.5 C-198.8319948 197.7899935 -196.48335462 195.42278499 -194 193 C-193.175 192.154375 -192.35 191.30875 -191.5 190.4375 C-189.10821597 188.10551057 -186.60605661 186.08484529 -184 184 C-181.48020356 181.60312046 -179.17275467 179.21594333 -177 176.5 C-174.8319948 173.7899935 -172.48335462 171.42278499 -170 169 C-169.175 168.154375 -168.35 167.30875 -167.5 166.4375 C-165.10821597 164.10551057 -162.60605661 162.08484529 -160 160 C-157.48020356 157.60312046 -155.17275467 155.21594333 -153 152.5 C-150.8319948 149.7899935 -148.48335462 147.42278499 -146 145 C-145.175 144.154375 -144.35 143.30875 -143.5 142.4375 C-141.10821597 140.10551057 -138.60605661 138.08484529 -136 136 C-133.48020356 133.60312046 -131.17275467 131.21594333 -129 128.5 C-126.8319948 125.7899935 -124.48335462 123.42278499 -122 121 C-121.175 120.154375 -120.35 119.30875 -119.5 118.4375 C-117.10821597 116.10551057 -114.60605661 114.08484529 -112 112 C-109.48020356 109.60312046 -107.17275467 107.21594333 -105 104.5 C-102.8319948 101.7899935 -100.48335462 99.42278499 -98 97 C-97.175 96.154375 -96.35 95.30875 -95.5 94.4375 C-93.10821597 92.10551057 -90.60605661 90.08484529 -88 88 C-85.48020356 85.60312046 -83.17275467 83.21594333 -81 80.5 C-78.8319948 77.7899935 -76.48335462 75.42278499 -74 73 C-73.175 72.154375 -72.35 71.30875 -71.5 70.4375 C-69 68 -69 68 -66.4375 66 C-63.85886826 63.8841996 -62.03854402 61.63037938 -60 59 C-58.68612831 57.64748503 -57.35573748 56.31054623 -56 55 C-55.34 54.34 -54.68 53.68 -54 53 C-5.75 4.75 -5.75 4.75 0 0 Z " fill="#00FF55" transform="translate(1354,238)"/>
<path d="M0 0 C1.98 0.33 3.96 0.66 6 1 C5.67 2.98 5.34 4.96 5 7 C3.515 7.495 3.515 7.495 2 8 C0.75049948 10.55401848 0.75049948 10.55401848 -0.1875 13.5625 C-0.53167969 14.57441406 -0.87585937 15.58632813 -1.23046875 16.62890625 C-1.48441406 17.41136719 -1.73835938 18.19382812 -2 19 C-2.66 19 -3.32 19 -4 19 C-4.32613281 19.67546875 -4.65226562 20.3509375 -4.98828125 21.046875 C-5.42527344 21.93890625 -5.86226562 22.8309375 -6.3125 23.75 C-6.74175781 24.63171875 -7.17101563 25.5134375 -7.61328125 26.421875 C-8.90280107 28.81929214 -10.35760379 30.83919381 -12 33 C-12.350625 33.886875 -12.70125 34.77375 -13.0625 35.6875 C-14 38 -14 38 -16 39 C-16.98259402 40.71420821 -16.98259402 40.71420821 -17.875 42.75 C-19.546425 46.24876651 -21.55436695 48.98371924 -24 52 C-24.67349161 53.66392045 -25.3409159 55.33032028 -26 57 C-27 58 -28 59 -29 60 C-29.474375 60.94875 -29.94875 61.8975 -30.4375 62.875 C-32.00013317 66.00026634 -33.78377333 68.31366464 -36 71 C-37.33793808 72.9969225 -38.6705387 74.99742405 -40 77 C-40.78266411 78.12244687 -41.5691841 79.24221412 -42.359375 80.359375 C-42.75253906 80.91753906 -43.14570312 81.47570313 -43.55078125 82.05078125 C-44.36281924 83.20138883 -45.17802236 84.34976801 -45.99609375 85.49609375 C-48.27564043 88.46176816 -48.27564043 88.46176816 -49 92 C-49.99 92 -50.98 92 -52 92 C-52.27166992 92.73951904 -52.54333984 93.47903809 -52.82324219 94.2409668 C-53.93895811 96.85688083 -55.15393917 98.85925127 -56.828125 101.14453125 C-57.65763672 102.28438477 -57.65763672 102.28438477 -58.50390625 103.44726562 C-59.08011719 104.22779297 -59.65632813 105.00832031 -60.25 105.8125 C-60.81074219 106.58142578 -61.37148437 107.35035156 -61.94921875 108.14257812 C-63.62433989 110.43474735 -65.31183338 112.71742932 -67 115 C-67.8362793 116.14927979 -67.8362793 116.14927979 -68.68945312 117.32177734 C-69.21990234 118.04445801 -69.75035156 118.76713867 -70.296875 119.51171875 C-70.76963867 120.15971436 -71.24240234 120.80770996 -71.72949219 121.4753418 C-73 123 -73 123 -75 124 C-76.07594065 126.02120024 -76.97847466 128.09289801 -77.90234375 130.1875 C-79 132 -79 132 -82 133 C-84.01583468 135.74986144 -85.85825163 138.55116387 -87.68359375 141.42773438 C-88.71831151 143.00071441 -89.85344707 144.50657326 -91 146 C-91.99 146 -92.98 146 -94 146 C-94.26167969 146.7321875 -94.52335937 147.464375 -94.79296875 148.21875 C-97.16689223 153.68876137 -101.25573962 158.29934613 -105.5 162.4375 C-108.64163029 165.65767105 -110.98001362 169.23793642 -113.44921875 172.98828125 C-113.96097656 173.65214844 -114.47273438 174.31601563 -115 175 C-115.66 175 -116.32 175 -117 175 C-117.66 175.99 -118.32 176.98 -119 178 C-119.66 178.99 -120.32 179.98 -121 181 C-121.66 181 -122.32 181 -123 181 C-123.66 181.99 -124.32 182.98 -125 184 C-125.66 184.99 -126.32 185.98 -127 187 C-127.66 187 -128.32 187 -129 187 C-129.66 187.99 -130.32 188.98 -131 190 C-131.66 190.99 -132.32 191.98 -133 193 C-133.66 193 -134.32 193 -135 193 C-135.66 193.99 -136.32 194.98 -137 196 C-137.66 196.99 -138.32 197.98 -139 199 C-139.66 199 -140.32 199 -141 199 C-141.66 199.99 -142.32 200.98 -143 202 C-143.66 202.99 -144.32 203.98 -145 205 C-145.66 205 -146.32 205 -147 205 C-147.66 205.99 -148.32 206.98 -149 208 C-149.66 208.99 -150.32 209.98 -151 211 C-151.66 211 -152.32 211 -153 211 C-153.66 211.99 -154.32 212.98 -155 214 C-155.66 214.99 -156.32 215.98 -157 217 C-157.66 217 -158.32 217 -159 217 C-159.66 217.99 -160.32 218.98 -161 220 C-161.66 220.99 -162.32 221.98 -163 223 C-163.66 223 -164.32 223 -165 223 C-166.15890098 224.15890098 -167.31350941 225.32243293 -168.4453125 226.5078125 C-170.19249186 228.1847535 -172.04286449 229.57461451 -174 231 C-177.30939541 233.42771784 -180.16847395 236.01541849 -183 239 C-187.66666667 243.88888889 -187.66666667 243.88888889 -191 245 C-192.9532341 246.77566737 -194.66275194 248.7307265 -196.4375 250.6875 C-199 253 -199 253 -203 253 C-203.268125 253.804375 -203.53625 254.60875 -203.8125 255.4375 C-204.204375 256.283125 -204.59625 257.12875 -205 258 C-205.99 258.33 -206.98 258.66 -208 259 C-208.66 259.66 -209.32 260.32 -210 261 C-210.845625 261.495 -211.69125 261.99 -212.5625 262.5 C-215.10406871 263.76866837 -215.10406871 263.76866837 -216 266 C-216.99 266 -217.98 266 -219 266 C-219.33 266.66 -219.66 267.32 -220 268 C-222.05593396 269.6888029 -224.14489995 271.08545382 -226.4375 272.4375 C-229.06497642 273.96530977 -229.06497642 273.96530977 -231.5 276 C-233.90203876 277.92163101 -236.36117394 279.43096829 -239 281 C-239.66 281.66 -240.32 282.32 -241 283 C-241.556875 283.268125 -242.11375 283.53625 -242.6875 283.8125 C-245.47894596 285.24594522 -247.83517422 287.06452178 -250.31640625 288.9765625 C-252 290 -252 290 -255 290 C-255.33 290.66 -255.66 291.32 -256 292 C-257.59013351 293.07433752 -259.22208251 294.08751823 -260.875 295.0625 C-262.20144531 295.85333984 -262.20144531 295.85333984 -263.5546875 296.66015625 C-266 298 -266 298 -269 299 C-269.66 299.66 -270.32 300.32 -271 301 C-272.25156659 301.68242152 -273.52540537 302.32471499 -274.8125 302.9375 C-277.98329044 304.4800467 -280.98226551 306.17347649 -284 308 C-285.99107248 309.01765927 -287.99218823 310.01577854 -290 311 C-290.64324219 311.33257813 -291.28648437 311.66515625 -291.94921875 312.0078125 C-295.90749779 314.04349886 -299.76967431 315.58989144 -304 317 C-304.66 317.66 -305.32 318.32 -306 319 C-307.32 319 -308.64 319 -310 319 C-310 319.66 -310 320.32 -310 321 C-310.99 321 -311.98 321 -313 321 C-313.33 321.66 -313.66 322.32 -314 323 C-314.99 323 -315.98 323 -317 323 C-317.66 323.66 -318.32 324.32 -319 325 C-320.99541868 325.68025637 -322.99617991 326.34490497 -325 327 C-326.5778125 327.804375 -326.5778125 327.804375 -328.1875 328.625 C-331 330 -331 330 -334 330 C-334.66 330.66 -335.32 331.32 -336 332 C-338.72949523 333.0087265 -341.40890807 333.86864624 -344.25 334.5 C-346.23877444 334.91501249 -346.23877444 334.91501249 -348 337 C-349.66128463 337.35919668 -351.32900023 337.68911632 -353 338 C-354.67540664 338.64438717 -356.34183216 339.31246699 -358 340 C-361.16848006 341.10208002 -364.33200533 342.09319448 -367.5625 343 C-370.89277085 343.90061299 -370.89277085 343.90061299 -373.5625 345.0625 C-376 346 -376 346 -379.1875 346.5 C-382.12747383 346.74585812 -382.12747383 346.74585812 -384 349 C-385.94079924 349.26315922 -387.8832271 349.51960836 -389.83203125 349.71484375 C-393.00771711 350.13254658 -395.93519622 351.08055887 -399 352 C-399.66 352 -400.32 352 -401 352 C-401.66 352.66 -402.32 353.32 -403 354 C-403.99 354 -404.98 354 -406 354 C-407.36031564 354.26149217 -408.71429503 354.55691171 -410.0625 354.875 C-415.02378258 356.01497108 -420.00597539 357.01504599 -425 358 C-426.6667666 358.33283327 -428.33343372 358.66616513 -430 359 C-431.23169922 359.24363281 -431.23169922 359.24363281 -432.48828125 359.4921875 C-434.19688674 359.83762874 -435.90261012 360.19757283 -437.60546875 360.5703125 C-442.52200602 361.62651264 -446.94609238 362.09909623 -452 362 C-455.02782644 362.45417397 -457.7493562 363.22861715 -460.6875 364.125 C-464 365 -464 365 -466 364 C-469.23306823 364.36600772 -472.38442552 364.8648739 -475.5625 365.5625 C-478.40728598 366.07310261 -481.11384932 366 -484 366 C-484.639375 366.165 -485.27875 366.33 -485.9375 366.5 C-488.94607874 367.22935242 -491.91313674 367 -495 367 C-495.7425 367.185625 -496.485 367.37125 -497.25 367.5625 C-499 368 -499 368 -502 367 C-502.5775 367.144375 -503.155 367.28875 -503.75 367.4375 C-506.85510051 368.21377513 -509.81095354 368.05798266 -513 368 C-516.01727705 367.90785573 -516.01727705 367.90785573 -519 368.5625 C-522 369 -522 369 -525 368 C-526.34061543 368.30271961 -527.67405895 368.63837971 -529 369 C-533 369 -533 369 -535.125 368.4375 C-537.07591269 367.77180827 -537.07591269 367.77180827 -539 369 C-542.52020544 369 -545.54975889 368.58727508 -549 368 C-551.84685229 367.83700466 -551.84685229 367.83700466 -553.8125 368.625 C-556.88581249 369.15185357 -559.07474815 367.97508395 -562 367 C-564.10820797 367.3185177 -564.10820797 367.3185177 -566 368 C-569.79384644 368 -573.25278668 367.53531619 -577 367 C-578.32 367 -579.64 367 -581 367 C-582.33568021 366.67619874 -583.66923011 366.34342449 -585 366 C-585.99 366 -586.98 366 -588 366 C-589.66666667 365.66666667 -591.33333333 365.33333333 -593 365 C-595.12510212 365 -597.25026217 365.023153 -599.375 365.0625 C-602.49421157 365.00872049 -604.97710575 364.64776305 -608 364 C-609.49864854 363.82158946 -610.99885933 363.65605918 -612.5 363.5 C-616.46038238 363.07966091 -620.27140514 362.45756923 -624.125 361.4375 C-626.1660264 360.88638519 -626.1660264 360.88638519 -629 361 C-634.21146957 360.41160827 -639.2613432 359.57185656 -644.39453125 358.5 C-648.3840226 357.67503248 -652.32144272 356.92429758 -656.375 356.5 C-659.6074647 356.0541428 -661.21851266 355.48345991 -664 354 C-665.9914056 353.61866701 -667.99279077 353.28674418 -670 353 C-672.73805104 352.53252787 -675.04419741 351.98211057 -677.625 350.9375 C-680.0395214 349.81641673 -680.0395214 349.81641673 -683 350 C-684.4855532 349.74283241 -685.96482429 349.44784628 -687.4375 349.125 C-688.58025391 348.88136719 -688.58025391 348.88136719 -689.74609375 348.6328125 C-692 348 -692 348 -694.09765625 346.9296875 C-696.09633052 345.78046111 -696.09633052 345.78046111 -699 346 C-700.33333333 345.33333333 -701.66666667 344.66666667 -703 344 C-703.99 344 -704.98 344 -706 344 C-711.30071468 343.15625328 -715.45770939 341.93912922 -720 339 C-720.99 339 -721.98 339 -723 339 C-725.00838196 338.35902703 -727.00827818 337.69100553 -729 337 C-729.70125 336.835 -730.4025 336.67 -731.125 336.5 C-733 336 -733 336 -735.0625 334.9375 C-737.09134681 333.78221954 -737.09134681 333.78221954 -740 334 C-742 333 -744 332 -746 331 C-746.99 331 -747.98 331 -749 331 C-751.00847365 330.01712992 -753.00819591 329.01622658 -755 328 C-756.32791801 327.64570823 -757.66193596 327.31380489 -759 327 C-764.26710862 325.41029085 -769.09368324 323.51020857 -774 321 C-774.66 320.835 -775.32 320.67 -776 320.5 C-778.88337696 319.77915576 -781.34610213 318.32694894 -784 317 C-785.010625 316.67 -786.02125 316.34 -787.0625 316 C-790 315 -790 315 -792.6875 313.375 C-794.98136704 311.7444623 -794.98136704 311.7444623 -798 312 C-800.12109375 310.94140625 -800.12109375 310.94140625 -802.4375 309.5625 C-805.31940348 307.85091265 -807.74557886 306.75415605 -811 306 C-813.5 304.5 -813.5 304.5 -816 303 C-817.33076989 302.65657551 -818.66431979 302.32380126 -820 302 C-822.00847365 301.01712992 -824.00819591 300.01622658 -826 299 C-826.78375 298.71125 -827.5675 298.4225 -828.375 298.125 C-831.55136222 296.76370191 -834.27124873 294.94970416 -837.1328125 293.0234375 C-839.08357687 291.75967469 -839.08357687 291.75967469 -842 292 C-847.26315789 288.73684211 -847.26315789 288.73684211 -849 287 C-849.04063832 285.33382885 -849.042721 283.66611905 -849 282 C-848.34 282 -847.68 282 -847 282 C-844.44223777 279.64416636 -842.17231104 277.2153888 -840 274.5 C-837.8319948 271.7899935 -835.48335462 269.42278499 -833 267 C-832.175 266.154375 -831.35 265.30875 -830.5 264.4375 C-828.10821597 262.10551057 -825.60605661 260.08484529 -823 258 C-820.48020356 255.60312046 -818.17275467 253.21594333 -816 250.5 C-813.8319948 247.7899935 -811.48335462 245.42278499 -809 243 C-808.175 242.154375 -807.35 241.30875 -806.5 240.4375 C-804.10821597 238.10551057 -801.60605661 236.08484529 -799 234 C-796.48020356 231.60312046 -794.17275467 229.21594333 -792 226.5 C-789.8319948 223.7899935 -787.48335462 221.42278499 -785 219 C-784.175 218.154375 -783.35 217.30875 -782.5 216.4375 C-780.10821597 214.10551057 -777.60605661 212.08484529 -775 210 C-772.48020356 207.60312046 -770.17275467 205.21594333 -768 202.5 C-765.8319948 199.7899935 -763.48335462 197.42278499 -761 195 C-760.175 194.154375 -759.35 193.30875 -758.5 192.4375 C-756.10821597 190.10551057 -753.60605661 188.08484529 -751 186 C-748.48020356 183.60312046 -746.17275467 181.21594333 -744 178.5 C-741.8319948 175.7899935 -739.48335462 173.42278499 -737 171 C-736.175 170.154375 -735.35 169.30875 -734.5 168.4375 C-732.10821597 166.10551057 -729.60605661 164.08484529 -727 162 C-724.48020356 159.60312046 -722.17275467 157.21594333 -720 154.5 C-717.83572172 151.79465215 -715.48068909 149.4154078 -713 147 C-712.34 146.34 -711.68 145.68 -711 145 C-590.75 24.75 -590.75 24.75 -585 20 C-584.360625 20.28875 -583.72125 20.5775 -583.0625 20.875 C-580.49951332 21.81650531 -578.15820965 22.44084405 -575.5 23 C-572.14075753 23.71273401 -569.16713132 24.65396919 -566 26 C-561.7740611 27.55861625 -557.7892827 28.89297862 -553.3125 29.5 C-550 30 -550 30 -547.1875 31.4375 C-543.57050691 33.21053583 -540.26759603 33.82555176 -536.328125 34.52734375 C-533.73252321 35.05430317 -531.45280149 36.0188794 -529 37 C-527.33385392 37.04165365 -525.66614608 37.04165365 -524 37 C-520.85275418 37.41411129 -518.5526559 38.1988196 -515.625 39.5 C-511.98378 41.00671172 -508.89565215 41.55898278 -505 42 C-503.04272755 42.44737656 -501.12237544 42.96624126 -499.1875 43.5 C-496.15115811 44.194021 -493.08350956 44.56722673 -490 45 C-487.2486327 45.45856122 -484.96560204 46.01392298 -482.375 47.0625 C-479.62981247 48.14612665 -477.54161081 48.02850583 -474.625 47.875 C-471.66800199 48.01580943 -469.73387936 48.89342978 -467 50 C-463.24071341 50.65952396 -459.82170569 51 -456 51 C-454.327767 51.65257873 -452.66072849 52.31867549 -451 53 C-448.14441413 53.17732712 -448.14441413 53.17732712 -446.1875 52.3125 C-442.91732183 51.84533169 -440.87878475 53.52998226 -438 55 C-436.515 54.505 -436.515 54.505 -435 54 C-433.32774271 54.30404678 -431.66246041 54.64628502 -430 55 C-425.66924638 55.51969043 -421.36395978 56 -417 56 C-413.72338078 56.42474694 -410.48735274 56.90031421 -407.25 57.5625 C-404.30235981 58.13565226 -401.56239051 57.98408693 -398.5625 57.875 C-395.12724598 57.99553523 -393.91426857 58.4926197 -391 60 C-388.90178785 59.60061233 -388.90178785 59.60061233 -387 59 C-386.34 59.33 -385.68 59.66 -385 60 C-383.515 59.505 -383.515 59.505 -382 59 C-379.57182592 59.37356524 -377.28760263 59.91284769 -374.9375 60.625 C-372.99105585 61.1455588 -372.99105585 61.1455588 -371.0625 60.5 C-369 60 -369 60 -366.76196289 60.46264648 C-363.69038931 61.06023629 -360.87446385 61.11283231 -357.74609375 61.09765625 C-356.56208984 61.09443359 -355.37808594 61.09121094 -354.15820312 61.08789062 C-352.93037109 61.07951172 -351.70253906 61.07113281 -350.4375 61.0625 C-348.58995117 61.05573242 -348.58995117 61.05573242 -346.70507812 61.04882812 C-344.42113277 61.04011553 -342.13719367 61.02934914 -339.85327148 61.01586914 C-336.02597943 60.99458276 -332.69600245 61.04619292 -329 62 C-325.98272295 62.09214427 -325.98272295 62.09214427 -323 61.4375 C-320 61 -320 61 -317 62 C-315.65938457 61.69728039 -314.32594105 61.36162029 -313 61 C-309 61 -309 61 -306 62 C-303.66512429 61.67764776 -301.33204168 61.34225308 -299 61 C-296.08180914 60.88054584 -293.17001375 60.90437593 -290.25 60.9375 C-289.11884766 60.94426758 -289.11884766 60.94426758 -287.96484375 60.95117188 C-285.9765343 60.96353259 -283.98826122 60.9814374 -282 61 C-278.94004731 61 -276.02126242 60.61818845 -272.9921875 60.21875 C-270.65362992 59.96196721 -268.35064056 60 -266 60 C-264.66431979 59.67619874 -263.33076989 59.34342449 -262 59 C-260.68 59 -259.36 59 -258 59 C-256.906875 58.835 -255.81375 58.67 -254.6875 58.5 C-251.06695015 58.00907799 -247.6482177 57.92984197 -244 58 C-238.56498257 58 -233.31021416 57.06204283 -228 56 C-227.01 56 -226.02 56 -225 56 C-222.15599254 55.48867028 -219.327791 54.91520853 -216.49609375 54.33984375 C-214 54 -214 54 -212 55 C-209.78307174 54.71230598 -209.78307174 54.71230598 -207.3125 54.125 C-201.79366765 52.94691115 -196.3006471 52.13166527 -190.6875 51.5625 C-185.72052403 51.02370939 -180.88389329 50.03529535 -176 49 C-166.54207588 47.01943319 -166.54207588 47.01943319 -161.8125 46.5 C-158.03723707 46.00488355 -154.64952924 45.06168123 -151 44 C-148.66666667 43.66666667 -146.33333333 43.33333333 -144 43 C-142.845 42.67 -141.69 42.34 -140.5 42 C-136.99064113 40.99732604 -133.61491736 40.4686004 -130 40 C-128.328451 39.69208308 -126.66194453 39.35613097 -125 39 C-124.319375 38.855625 -123.63875 38.71125 -122.9375 38.5625 C-114.75486797 36.93188318 -114.75486797 36.93188318 -107 34 C-106.01 34.33 -105.02 34.66 -104 35 C-103.67 34.34 -103.34 33.68 -103 33 C-100.671875 32.4375 -100.671875 32.4375 -97.75 32 C-93.86279549 31.41166634 -90.62815673 30.49163785 -87 29 C-84.94645293 28.42532316 -82.88322476 27.88432112 -80.8125 27.375 C-79.24435547 26.98441406 -79.24435547 26.98441406 -77.64453125 26.5859375 C-75 26 -75 26 -73 26 C-72.34 25.34 -71.68 24.68 -71 24 C-68.6693782 23.64820803 -66.33564933 23.31669821 -64 23 C-62.32459336 22.35561283 -60.65816784 21.68753301 -59 21 C-55.33162822 19.93638925 -51.84494009 19 -48 19 C-47.67 18.34 -47.34 17.68 -47 17 C-45.37102032 16.49094385 -43.73719493 15.99384888 -42.0859375 15.5625 C-39.12146343 14.76309126 -36.23218414 13.76764371 -33.32421875 12.78515625 C-31.03258592 12.01100802 -28.73536586 11.25540857 -26.4375 10.5 C-22.98984864 9.35078288 -19.58539294 8.11603603 -16.1875 6.828125 C-13.50387424 5.81218096 -10.81637652 4.80774861 -8.125 3.8125 C-6.73667969 3.29623047 -6.73667969 3.29623047 -5.3203125 2.76953125 C-3 2 -3 2 -1 2 C-0.67 1.34 -0.34 0.68 0 0 Z " fill="#00FF55" transform="translate(1167,990)"/>
<path d="M0 0 C2.1875 0.3125 2.1875 0.3125 4 1 C4.625 3.3125 4.625 3.3125 5 6 C4.34 6.99 3.68 7.98 3 9 C1.53489254 12.61828158 0.28190583 16.31327859 -1 20 C-1.40605469 21.15628906 -1.40605469 21.15628906 -1.8203125 22.3359375 C-3.5474861 27.37201211 -4.95230304 32.45489682 -6.25390625 37.6171875 C-7 40 -7 40 -9 43 C-9.76156055 45.3374906 -10.46386183 47.69464588 -11.125 50.0625 C-11.47820312 51.31160156 -11.83140625 52.56070313 -12.1953125 53.84765625 C-13.08244509 56.78073867 -13.08244509 56.78073867 -13 59 C-13.66 59 -14.32 59 -15 59 C-16.32 65.27 -17.64 71.54 -19 78 C-19.66 78 -20.32 78 -21 78 C-21.13277344 78.98097656 -21.26554687 79.96195312 -21.40234375 80.97265625 C-21.99939428 85.15200993 -22.76971655 89.29150806 -23.5625 93.4375 C-23.70107422 94.16904297 -23.83964844 94.90058594 -23.98242188 95.65429688 C-24.3202181 97.43646318 -24.65990988 99.21827002 -25 101 C-25.66 101 -26.32 101 -27 101 C-27.12955078 101.82564453 -27.12955078 101.82564453 -27.26171875 102.66796875 C-28.35955815 109.16435786 -29.81883989 115.5394321 -31.375 121.9375 C-33.68689444 131.46551467 -35.68320347 141.03268226 -37.54467773 150.65771484 C-38.67036277 156.44850425 -39.83631129 162.22970017 -41.0625 168 C-42.06482439 172.97216038 -42.59153146 177.94788905 -43 183 C-43.66 183 -44.32 183 -45 183 C-44.95552734 184.64548828 -44.95552734 184.64548828 -44.91015625 186.32421875 C-44.91130811 191.56171813 -45.66907581 196.6408265 -46.4375 201.8125 C-47.26339901 207.45943629 -48.03020604 213.07015598 -48.47265625 218.76171875 C-48.73234858 221.87253635 -49.11265558 224.38479611 -49.99609375 227.40234375 C-51.48114532 232.72426008 -51.69816646 238.06448283 -52.0625 243.5625 C-52.14556396 244.73272705 -52.22862793 245.9029541 -52.31420898 247.10864258 C-52.47673279 249.40523023 -52.63643026 251.70202006 -52.79296875 253.99902344 C-52.9542314 256.33657119 -53.12535148 258.6722495 -53.3125 261.0078125 C-54.17578578 271.98772846 -54.55776253 282.99667678 -55 294 C-55.66 294 -56.32 294 -57 294 C-56.84402344 294.56847656 -56.68804687 295.13695312 -56.52734375 295.72265625 C-56.33269531 296.49480469 -56.13804687 297.26695312 -55.9375 298.0625 C-55.74027344 298.81660156 -55.54304688 299.57070313 -55.33984375 300.34765625 C-55 303 -55 303 -55.47045898 305.96191406 C-56.24519789 311.04583597 -56.14296555 316.12990992 -56.1328125 321.26171875 C-56.13376923 322.32993362 -56.13472595 323.3981485 -56.13571167 324.49873352 C-56.13638973 326.74695902 -56.13456163 328.99518651 -56.13037109 331.2434082 C-56.12500171 334.68640516 -56.13033693 338.12927261 -56.13671875 341.57226562 C-56.13605821 343.76041695 -56.13477755 345.9485682 -56.1328125 348.13671875 C-56.13584885 349.68053474 -56.13584885 349.68053474 -56.13894653 351.25553894 C-56.13579437 352.21365982 -56.13264221 353.1717807 -56.12939453 354.15893555 C-56.12859894 354.9994194 -56.12780334 355.83990326 -56.12698364 356.70585632 C-56.00378445 358.93162836 -55.61903316 360.86391509 -55 363 C-55.66 363 -56.32 363 -57 363 C-56.67 364.11375 -56.34 365.2275 -56 366.375 C-55 370 -55 370 -55 372 C-54.83587773 374.29185029 -54.6687007 376.58348217 -54.5 378.875 C-54.07050955 384.86610158 -53.934304 390.79550016 -54.0625 396.8046875 C-54.25211722 398.97678191 -54.25211722 398.97678191 -53 400 C-52.79486265 402.0842106 -52.65200732 404.17460588 -52.53515625 406.265625 C-52.45716797 407.54824219 -52.37917969 408.83085938 -52.29882812 410.15234375 C-52.17956109 412.19727135 -52.06292427 414.24228545 -51.95043945 416.28759766 C-51.84017815 418.25986375 -51.71903184 420.23151169 -51.59765625 422.203125 C-51.53070557 423.38551758 -51.46375488 424.56791016 -51.39477539 425.78613281 C-51.01411724 428.88507153 -50.23806714 431.15857463 -49 434 C-48.73922641 436.07543517 -48.55604399 438.16160795 -48.4375 440.25 C-48.09808165 445.52587112 -47.64931658 450.75393432 -47 456 C-46.855625 457.216875 -46.71125 458.43375 -46.5625 459.6875 C-46.09310044 463.00358653 -46.09310044 463.00358653 -44.9375 466.0625 C-43.93175624 469.21383045 -44 471.71683504 -44 475 C-43.67 475.66 -43.34 476.32 -43 477 C-41.64560332 479.70879335 -41.93498549 482.00933268 -42 485 C-41.67 485.66 -41.34 486.32 -41 487 C-40.81954167 488.32908989 -40.67941571 489.66382043 -40.5625 491 C-39.95455138 496.8895023 -39.25023959 502.94493984 -36.99609375 508.453125 C-35.61307279 511.98931976 -35.15029738 515.54453806 -34.5625 519.28125 C-34.07848253 522.03373439 -34.07848253 522.03373439 -32.93359375 524.625 C-32 527 -32 527 -32.0625 530.5 C-32.29149474 533.98555125 -32.29149474 533.98555125 -30.5 536.5 C-29 539 -29 539 -29.125 542.0625 C-28.99919133 546.02547312 -28.33810037 547.88593008 -26.75 551.4375 C-24.26734629 556.99892485 -22.73165076 562.46854016 -21.43261719 568.39233398 C-20.46943171 572.64284373 -18.95132804 576.12475021 -17 580 C-16.92353835 582.3320802 -16.90856701 584.66845878 -17 587 C-16.67 587.33 -16.34 587.66 -16 588 C-15.53488372 592.41860465 -15.53488372 592.41860465 -17.25 594.5625 C-17.8275 595.036875 -18.405 595.51125 -19 596 C-19.680625 596.680625 -20.36125 597.36125 -21.0625 598.0625 C-74.375 651.375 -127.6875 704.6875 -181 758 C-181.639375 758.845625 -182.27875 759.69125 -182.9375 760.5625 C-185 763 -185 763 -188 764 C-189.34270821 765.99371825 -190.67653494 767.9934562 -192 770 C-192.66 770 -193.32 770 -194 770 C-194.66 770.99 -195.32 771.98 -196 773 C-196.66 773.99 -197.32 774.98 -198 776 C-198.66 776 -199.32 776 -200 776 C-200.66 776.99 -201.32 777.98 -202 779 C-202.66 779.99 -203.32 780.98 -204 782 C-204.66 782 -205.32 782 -206 782 C-206.66 782.99 -207.32 783.98 -208 785 C-208.66 785.99 -209.32 786.98 -210 788 C-210.66 788 -211.32 788 -212 788 C-212.66 788.99 -213.32 789.98 -214 791 C-214.66 791.99 -215.32 792.98 -216 794 C-216.66 794 -217.32 794 -218 794 C-218.66 794.99 -219.32 795.98 -220 797 C-220.66 797.99 -221.32 798.98 -222 800 C-222.66 800 -223.32 800 -224 800 C-225.36639342 801.6396721 -226.6949419 803.31110128 -228 805 C-229.31387169 806.35251497 -230.64426252 807.68945377 -232 809 C-232.66 809.66 -233.32 810.32 -234 811 C-276.25 853.25 -276.25 853.25 -280 856 C-283.17595349 852.25832979 -284.98827828 847.99055664 -287 843.5625 C-289.13799141 838.88062031 -291.32362679 834.40356755 -294 830 C-294.53966498 828.70330498 -295.04364905 827.39080722 -295.5 826.0625 C-296.32855377 823.66068043 -297.25727346 821.49045563 -298.40625 819.21484375 C-300.44841104 815.09548459 -302.08932003 810.84784679 -303.75 806.56640625 C-304.9055843 803.62327748 -306.11580273 800.77015804 -307.5390625 797.9453125 C-309.09321974 794.81206501 -310.24199814 791.6827571 -311.375 788.375 C-312.92989509 783.92846419 -314.56540981 779.57206031 -316.4375 775.25 C-318.91505238 769.43517674 -320.90818617 763.50065922 -322.85717773 757.49316406 C-324.22960874 753.26639606 -325.68979161 749.09388326 -327.26757812 744.93945312 C-333.41417247 728.66327131 -337.65753327 711.8227457 -342 695 C-342.22461914 694.1347168 -342.44923828 693.26943359 -342.68066406 692.37792969 C-343.83236628 687.92896832 -344.93244683 683.47007423 -346 679 C-346.31324219 677.72511719 -346.62648438 676.45023438 -346.94921875 675.13671875 C-349.64022148 663.85428229 -351.47046824 652.44230016 -353.24975586 640.98803711 C-354.48977522 632.98410172 -354.48977522 632.98410172 -356.05078125 625.0390625 C-357.3191227 618.90494804 -357.82411235 612.68345131 -358.37768555 606.45263672 C-358.56038018 604.39883052 -358.7511581 602.34590479 -358.94335938 600.29296875 C-359.71258601 591.94068777 -360.29526483 583.59356403 -360.73413086 575.21728516 C-360.87326214 571.9851756 -360.87326214 571.9851756 -362 569 C-362.093826 567.03228101 -362.1279311 565.06150684 -362.12939453 563.09155273 C-362.13254669 561.87696884 -362.13569885 560.66238495 -362.13894653 559.41099548 C-362.1369223 558.09845291 -362.13489807 556.78591034 -362.1328125 555.43359375 C-362.1334861 554.07503746 -362.13445659 552.71648129 -362.13571167 551.35792542 C-362.13718551 548.51244966 -362.13504383 545.66700531 -362.13037109 542.8215332 C-362.12466855 539.17068456 -362.1279581 535.51990934 -362.13394356 531.86906338 C-362.13755301 529.06471704 -362.13640891 526.26038819 -362.13381577 523.45604134 C-362.13282265 521.4540464 -362.13586377 519.45205079 -362.13894653 517.45005798 C-362.13579437 516.23862625 -362.13264221 515.02719452 -362.12939453 513.77905273 C-362.12859894 512.70888412 -362.12780334 511.63871552 -362.12698364 510.53611755 C-362 508 -362 508 -361 506 C-360.72633127 503.37218157 -360.50313752 500.75926262 -360.31640625 498.125 C-360.25597641 497.32707031 -360.19554657 496.52914063 -360.13328552 495.70703125 C-359.93904834 493.13830025 -359.75025016 490.56921273 -359.5625 488 C-358.62964187 475.29735592 -357.49621885 462.64958984 -356 450 C-355.67 450 -355.34 450 -355 450 C-353.35 439.77 -351.7 429.54 -350 419 C-349.34 419 -348.68 419 -348 419 C-347.94392578 418.16082031 -347.94392578 418.16082031 -347.88671875 417.3046875 C-347.09660349 407.66837985 -345.43833896 398.02189737 -341.75 389.05078125 C-340.42989259 385.44111256 -339.65021113 381.68525032 -338.75 377.953125 C-337.7169302 373.88541266 -336.37765165 369.9607485 -335 366 C-334.7525 365.2265625 -334.505 364.453125 -334.25 363.65625 C-333.16167673 360.25523978 -332.06468471 357.12678203 -330.4375 353.9375 C-328.66912716 350.32386854 -327.8999705 346.92130005 -327 343 C-326.67 342.01 -326.34 341.02 -326 340 C-325.34 339.67 -324.68 339.34 -324 339 C-323.1625428 336.72102817 -323.1625428 336.72102817 -322.5 334.0625 C-321.21722114 329.21722114 -321.21722114 329.21722114 -319 327 C-318.22960999 324.81254224 -317.52938697 322.59991571 -316.875 320.375 C-316.52179688 319.18648437 -316.16859375 317.99796875 -315.8046875 316.7734375 C-315.53914063 315.85820313 -315.27359375 314.94296875 -315 314 C-314.34 314 -313.68 314 -313 314 C-312.74605469 313.25234375 -312.49210937 312.5046875 -312.23046875 311.734375 C-311.88628906 310.74953125 -311.54210937 309.7646875 -311.1875 308.75 C-310.85105469 307.77546875 -310.51460937 306.8009375 -310.16796875 305.796875 C-309.04803092 303.11501719 -307.7407777 301.29634504 -306 299 C-305.02020655 296.6587434 -305.02020655 296.6587434 -304.3125 294.25 C-304.06113281 293.45078125 -303.80976563 292.6515625 -303.55078125 291.828125 C-303.27814453 290.92320312 -303.27814453 290.92320312 -303 290 C-302.34 290 -301.68 290 -301 290 C-300.60167969 288.82630859 -300.60167969 288.82630859 -300.1953125 287.62890625 C-299.84210938 286.61699219 -299.48890625 285.60507812 -299.125 284.5625 C-298.60292969 283.04849609 -298.60292969 283.04849609 -298.0703125 281.50390625 C-297 279 -297 279 -295 278 C-293.94558944 275.92020794 -293.94558944 275.92020794 -293 273.5 C-291.22222222 269.11111111 -291.22222222 269.11111111 -289 268 C-288.28752268 266.3523962 -287.62599617 264.68236471 -287 263 C-286.34786461 261.65949948 -285.68620031 260.32338632 -285 259 C-284.34 259 -283.68 259 -283 259 C-282.71125 258.278125 -282.4225 257.55625 -282.125 256.8125 C-281.08333333 254.20833333 -280.04166667 251.60416667 -279 249 C-278.34 249 -277.68 249 -277 249 C-276.63261719 248.02546875 -276.26523437 247.0509375 -275.88671875 246.046875 C-273.85197113 241.30825854 -270.87930515 237.36757952 -267.8125 233.25 C-267.23169678 232.45940186 -266.65089355 231.66880371 -266.05249023 230.85424805 C-264.89752654 229.28233458 -263.74012072 227.71221204 -262.58007812 226.14404297 C-261.23217041 224.31503716 -259.89906184 222.47741933 -258.578125 220.62890625 C-255.74779234 216.67411972 -252.91679244 212.82636124 -249.6875 209.1875 C-247.18462945 206.36409835 -245.52415329 203.47168248 -244 200 C-243.34 200 -242.68 200 -242 200 C-240.31887236 197.80114456 -238.73922479 195.60009427 -237.1875 193.3125 C-234.09525265 188.77003075 -230.99795453 184.81683914 -227 181 C-225.76630356 179.54487087 -224.53309162 178.08909766 -223.32421875 176.61328125 C-221.8601459 174.82961728 -220.37218409 173.06845665 -218.875 171.3125 C-218.39804687 170.75175781 -217.92109375 170.19101562 -217.4296875 169.61328125 C-216.00861104 168.00971683 -214.52912189 166.50027053 -213 165 C-212.319375 164.319375 -211.63875 163.63875 -210.9375 162.9375 C-169.6097561 121.6097561 -169.6097561 121.6097561 -156.140625 110.4609375 C-155.20476562 109.67589844 -155.20476562 109.67589844 -154.25 108.875 C-153.67765625 108.39804687 -153.1053125 107.92109375 -152.515625 107.4296875 C-150.75549264 105.8765899 -150.75549264 105.8765899 -149 103 C-148.01 103 -147.02 103 -146 103 C-145.67 102.01 -145.34 101.02 -145 100 C-144.34 100 -143.68 100 -143 100 C-142.34 99.34 -141.68 98.68 -141 98 C-137.44581401 94.44581401 -134.31947417 91.5916845 -130 89 C-129.34 88.34 -128.68 87.68 -128 87 C-121.91922865 81.36341598 -121.91922865 81.36341598 -118.3125 79.9375 C-115.20114352 78.67613926 -114.04425057 76.61919604 -112 74 C-110.36504293 72.94895617 -108.70116376 71.94011682 -107 71 C-106.34 70.34 -105.68 69.68 -105 69 C-102.8377054 67.2850767 -100.7022577 65.82689401 -98.3125 64.4375 C-95.88644136 63.2091532 -95.88644136 63.2091532 -95 61 C-94.01 61 -93.02 61 -92 61 C-91.67 60.34 -91.34 59.68 -91 59 C-89.69417053 57.96434215 -88.35622245 56.96873032 -87 56 C-86.34 55.484375 -85.68 54.96875 -85 54.4375 C-83 53 -83 53 -80.9375 52 C-78.94278133 51.09480142 -78.94278133 51.09480142 -77.5 49.5 C-75.80841313 47.80841313 -74.1405332 47.03574187 -72 46 C-71.34 45.34 -70.68 44.68 -70 44 C-68.36076225 43.06329271 -66.72006448 42.12900032 -65.0703125 41.2109375 C-61.98666998 39.40729754 -59.05865144 37.38657097 -56.11328125 35.3671875 C-54 34 -54 34 -51.82421875 32.9140625 C-49.92437267 32.08208038 -49.92437267 32.08208038 -48.5 30.5 C-46.80841313 28.80841313 -45.1405332 28.03574187 -43 27 C-42.34 26.34 -41.68 25.68 -41 25 C-39.68 25 -38.36 25 -37 25 C-36.67 24.01 -36.34 23.02 -36 22 C-30.74285714 18 -30.74285714 18 -27 18 C-26.67 17.34 -26.34 16.68 -26 16 C-24.36816893 14.94410931 -22.69207001 13.9563874 -21 13 C-20.42378906 12.66613281 -19.84757812 12.33226562 -19.25390625 11.98828125 C-16.21059735 10.22774342 -13.14304605 8.57152303 -10 7 C-5.30290672 4.57307732 -5.30290672 4.57307732 -1.3125 1.1875 C-0.879375 0.795625 -0.44625 0.40375 0 0 Z " fill="#00FF55" transform="translate(504,326)"/>
<path d="" fill="#00FF55" transform="translate(0,0)"/>
<path d="" fill="#00FF55" transform="translate(0,0)"/>
<path d="" fill="#00FF55" transform="translate(0,0)"/>
<path d="" fill="#00FF55" transform="translate(0,0)"/>
<path d="" fill="#00FF55" transform="translate(0,0)"/>
<path d="" fill="#00FF55" transform="translate(0,0)"/>
<path d="" fill="#00FF55" transform="translate(0,0)"/>
<path d="" fill="#00FF55" transform="translate(0,0)"/>
<path d="" fill="#00FF55" transform="translate(0,0)"/>
<path d="" fill="#00FF55" transform="translate(0,0)"/>
<path d="" fill="#00FF55" transform="translate(0,0)"/>
<path d="" fill="#00FF55" transform="translate(0,0)"/>
<path d="" fill="#00FF55" transform="translate(0,0)"/>
<path d="" fill="#00FF55" transform="translate(0,0)"/>
<path d="" fill="#00FF55" transform="translate(0,0)"/>
<path d="" fill="#00FF55" transform="translate(0,0)"/>
<path d="" fill="#00FF55" transform="translate(0,0)"/>
<path d="" fill="#00FF55" transform="translate(0,0)"/>
<path d="" fill="#00FF55" transform="translate(0,0)"/>
<path d="" fill="#00FF55" transform="translate(0,0)"/>
<path d="" fill="#00FF55" transform="translate(0,0)"/>
<path d="" fill="#00FF55" transform="translate(0,0)"/>
<path d="" fill="#00FF55" transform="translate(0,0)"/>
<path d="" fill="#00FF55" transform="translate(0,0)"/>
<path d="" fill="#00FF55" transform="translate(0,0)"/>
<path d="" fill="#00FF55" transform="translate(0,0)"/>
<path d="" fill="#00FF55" transform="translate(0,0)"/>
<path d="" fill="#00FF55" transform="translate(0,0)"/>
<path d="" fill="#00FF55" transform="translate(0,0)"/>
<path d="" fill="#00FF55" transform="translate(0,0)"/>
<path d="" fill="#00FF55" transform="translate(0,0)"/>
<path d="" fill="#00FF55" transform="translate(0,0)"/>
<path d="" fill="#00FF55" transform="translate(0,0)"/>
<path d="" fill="#00FF55" transform="translate(0,0)"/>
<path d="" fill="#00FF55" transform="translate(0,0)"/>
<path d="" fill="#00FF55" transform="translate(0,0)"/>
<path d="" fill="#00FF55" transform="translate(0,0)"/>
<path d="" fill="#00FF55" transform="translate(0,0)"/>
<path d="" fill="#00FF55" transform="translate(0,0)"/>
<path d="" fill="#00FF55" transform="translate(0,0)"/>
<path d="" fill="#00FF55" transform="translate(0,0)"/>
<path d="" fill="#00FF55" transform="translate(0,0)"/>
<path d="" fill="#00FF55" transform="translate(0,0)"/>
<path d="" fill="#00FF55" transform="translate(0,0)"/>
<path d="" fill="#00FF55" transform="translate(0,0)"/>
<path d="" fill="#00FF55" transform="translate(0,0)"/>
<path d="" fill="#00FF55" transform="translate(0,0)"/>
<path d="" fill="#00FF55" transform="translate(0,0)"/>
<path d="" fill="#00FF55" transform="translate(0,0)"/>
<path d="" fill="#00FF55" transform="translate(0,0)"/>
<path d="" fill="#00FF55" transform="translate(0,0)"/>
<path d="" fill="#00FF55" transform="translate(0,0)"/>
<path d="" fill="#00FF55" transform="translate(0,0)"/>
<path d="" fill="#00FF55" transform="translate(0,0)"/>
<path d="" fill="#00FF55" transform="translate(0,0)"/>
<path d="" fill="#00FF55" transform="translate(0,0)"/>
<path d="" fill="#00FF55" transform="translate(0,0)"/>
<path d="" fill="#00FF55" transform="translate(0,0)"/>
<path d="" fill="#00FF55" transform="translate(0,0)"/>
<path d="" fill="#00FF55" transform="translate(0,0)"/>
<path d="" fill="#00FF55" transform="translate(0,0)"/>
<path d="" fill="#00FF55" transform="translate(0,0)"/>
<path d="" fill="#00FF55" transform="translate(0,0)"/>
<path d="" fill="#00FF55" transform="translate(0,0)"/>
<path d="" fill="#00FF55" transform="translate(0,0)"/>
<path d="" fill="#00FF55" transform="translate(0,0)"/>
<path d="" fill="#00FF55" transform="translate(0,0)"/>
<path d="" fill="#00FF55" transform="translate(0,0)"/>
<path d="" fill="#00FF55" transform="translate(0,0)"/>
<path d="" fill="#00FF55" transform="translate(0,0)"/>
<path d="" fill="#00FF55" transform="translate(0,0)"/>
<path d="" fill="#00FF55" transform="translate(0,0)"/>
<path d="" fill="#00FF55" transform="translate(0,0)"/>
<path d="" fill="#00FF55" transform="translate(0,0)"/>
<path d="" fill="#00FF55" transform="translate(0,0)"/>
<path d="" fill="#00FF55" transform="translate(0,0)"/>
<path d="" fill="#00FF55" transform="translate(0,0)"/>
<path d="" fill="#00FF55" transform="translate(0,0)"/>
<path d="" fill="#00FF55" transform="translate(0,0)"/>
<path d="" fill="#00FF55" transform="translate(0,0)"/>
<path d="" fill="#00FF55" transform="translate(0,0)"/>
<path d="" fill="#00FF55" transform="translate(0,0)"/>
<path d="" fill="#00FF55" transform="translate(0,0)"/>
<path d="" fill="#00FF55" transform="translate(0,0)"/>
<path d="" fill="#00FF55" transform="translate(0,0)"/>
<path d="" fill="#00FF55" transform="translate(0,0)"/>
<path d="" fill="#00FF55" transform="translate(0,0)"/>
<path d="" fill="#00FF55" transform="translate(0,0)"/>
<path d="" fill="#00FF55" transform="translate(0,0)"/>
<path d="" fill="#00FF55" transform="translate(0,0)"/>
<path d="" fill="#00FF55" transform="translate(0,0)"/>
<path d="" fill="#00FF55" transform="translate(0,0)"/>
<path d="" fill="#00FF55" transform="translate(0,0)"/>
<path d="" fill="#00FF55" transform="translate(0,0)"/>
<path d="" fill="#00FF55" transform="translate(0,0)"/>
<path d="" fill="#00FF55" transform="translate(0,0)"/>
<path d="" fill="#00FF55" transform="translate(0,0)"/>
<path d="" fill="#00FF55" transform="translate(0,0)"/>
<path d="" fill="#00FF55" transform="translate(0,0)"/>
<path d="" fill="#00FF55" transform="translate(0,0)"/>
<path d="" fill="#00FF55" transform="translate(0,0)"/>
<path d="" fill="#00FF55" transform="translate(0,0)"/>
<path d="" fill="#00FF55" transform="translate(0,0)"/>
<path d="" fill="#00FF55" transform="translate(0,0)"/>
<path d="" fill="#00FF55" transform="translate(0,0)"/>
<path d="" fill="#00FF55" transform="translate(0,0)"/>
<path d="" fill="#00FF55" transform="translate(0,0)"/>
<path d="" fill="#00FF55" transform="translate(0,0)"/>
<path d="" fill="#00FF55" transform="translate(0,0)"/>
<path d="" fill="#00FF55" transform="translate(0,0)"/>
<path d="" fill="#00FF55" transform="translate(0,0)"/>
<path d="" fill="#00FF55" transform="translate(0,0)"/>
<path d="" fill="#00FF55" transform="translate(0,0)"/>
<path d="" fill="#00FF55" transform="translate(0,0)"/>
<path d="" fill="#00FF55" transform="translate(0,0)"/>
<path d="" fill="#00FF55" transform="translate(0,0)"/>
<path d="" fill="#00FF55" transform="translate(0,0)"/>
<path d="" fill="#00FF55" transform="translate(0,0)"/>
<path d="" fill="#00FF55" transform="translate(0,0)"/>
<path d="" fill="#00FF55" transform="translate(0,0)"/>
<path d="" fill="#00FF55" transform="translate(0,0)"/>
<path d="" fill="#00FF55" transform="translate(0,0)"/>
<path d="" fill="#00FF55" transform="translate(0,0)"/>
<path d="" fill="#00FF55" transform="translate(0,0)"/>
<path d="" fill="#00FF55" transform="translate(0,0)"/>
<path d="" fill="#00FF55" transform="translate(0,0)"/>
<path d="" fill="#00FF55" transform="translate(0,0)"/>
<path d="" fill="#00FF55" transform="translate(0,0)"/>
<path d="" fill="#00FF55" transform="translate(0,0)"/>
<path d="" fill="#00FF55" transform="translate(0,0)"/>
<path d="" fill="#00FF55" transform="translate(0,0)"/>
<path d="" fill="#00FF55" transform="translate(0,0)"/>
<path d="" fill="#00FF55" transform="translate(0,0)"/>
<path d="" fill="#00FF55" transform="translate(0,0)"/>
<path d="" fill="#00FF55" transform="translate(0,0)"/>
<path d="" fill="#00FF55" transform="translate(0,0)"/>
<path d="" fill="#00FF55" transform="translate(0,0)"/>
<path d="" fill="#00FF55" transform="translate(0,0)"/>
<path d="" fill="#00FF55" transform="translate(0,0)"/>
<path d="" fill="#00FF55" transform="translate(0,0)"/>
<path d="" fill="#00FF55" transform="translate(0,0)"/>
<path d="" fill="#00FF55" transform="translate(0,0)"/>
<path d="" fill="#00FF55" transform="translate(0,0)"/>
<path d="" fill="#00FF55" transform="translate(0,0)"/>
<path d="" fill="#00FF55" transform="translate(0,0)"/>
<path d="" fill="#00FF55" transform="translate(0,0)"/>
<path d="" fill="#00FF55" transform="translate(0,0)"/>
<path d="" fill="#00FF55" transform="translate(0,0)"/>
<path d="" fill="#00FF55" transform="translate(0,0)"/>
<path d="" fill="#00FF55" transform="translate(0,0)"/>
<path d="" fill="#00FF55" transform="translate(0,0)"/>
<path d="" fill="#00FF55" transform="translate(0,0)"/>
<path d="" fill="#00FF55" transform="translate(0,0)"/>
<path d="" fill="#00FF55" transform="translate(0,0)"/>
<path d="" fill="#00FF55" transform="translate(0,0)"/>
<path d="" fill="#00FF55" transform="translate(0,0)"/>
</svg>
