<?xml version="1.0" encoding="UTF-8"?>
<svg version="1.1" xmlns="http://www.w3.org/2000/svg" width="1500" height="1500">
<path d="M0 0 C1.54780594 -0.00067728 3.09561177 -0.00165079 4.64341736 -0.00289917 C7.85416701 -0.00435582 11.06488845 -0.00228796 14.27563477 0.00244141 C18.33822148 0.00814228 22.40074213 0.00484425 26.46332645 -0.00113106 C29.64912898 -0.00478818 32.83491649 -0.00357485 36.02071953 -0.00100327 C37.51664679 -0.0003484 39.01257553 -0.00111031 40.50850105 -0.00348282 C51.07007017 -0.01657067 61.55298371 0.41188053 72.08984375 1.1328125 C71.42860199 5.0087308 71.00476702 6.71095817 67.83984375 9.1328125 C67.20820312 9.638125 66.5765625 10.1434375 65.92578125 10.6640625 C65.31992188 11.14875 64.7140625 11.6334375 64.08984375 12.1328125 C61.44338093 14.65325328 59.06868604 17.15911668 56.77734375 20.0078125 C54.17508245 23.20933271 51.1304283 25.74753908 47.99609375 28.4140625 C45.88032091 30.24001779 45.88032091 30.24001779 43.58984375 33.1328125 C40.95951359 36.28920869 38.11463114 38.76097845 34.99609375 41.4140625 C32.88032091 43.24001779 32.88032091 43.24001779 30.58984375 46.1328125 C27.95758135 49.29152738 25.12250037 51.81183892 22.0078125 54.4765625 C18.60629283 57.41392368 15.59328954 60.50690692 12.77734375 64.0078125 C10.17508245 67.20933271 7.1304283 69.74753908 3.99609375 72.4140625 C1.88032091 74.24001779 1.88032091 74.24001779 -0.41015625 77.1328125 C-3.04048641 80.28920869 -5.88536886 82.76097845 -9.00390625 85.4140625 C-11.11967909 87.24001779 -11.11967909 87.24001779 -13.41015625 90.1328125 C-16.04048641 93.28920869 -18.88536886 95.76097845 -22.00390625 98.4140625 C-24.11967909 100.24001779 -24.11967909 100.24001779 -26.41015625 103.1328125 C-28.47697481 105.61299477 -30.40794602 107.49955656 -32.84765625 109.5703125 C-36.06662959 112.30704264 -38.73110975 115.18723835 -41.41015625 118.44140625 C-43.49278716 120.78978954 -45.83989256 122.7321319 -48.25 124.734375 C-51.59142293 127.54903244 -54.48735652 130.6071696 -57.22265625 134.0078125 C-59.82491755 137.20933271 -62.8695717 139.74753908 -66.00390625 142.4140625 C-68.11967909 144.24001779 -68.11967909 144.24001779 -70.41015625 147.1328125 C-72.47697481 149.61299477 -74.40794602 151.49955656 -76.84765625 153.5703125 C-80.06662959 156.30704264 -82.73110975 159.18723835 -85.41015625 162.44140625 C-87.49278716 164.78978954 -89.83989256 166.7321319 -92.25 168.734375 C-95.59142293 171.54903244 -98.48735652 174.6071696 -101.22265625 178.0078125 C-103.83543035 181.21402425 -106.86638333 183.80343191 -110.00390625 186.484375 C-112.43328279 188.58518832 -114.66760901 190.83420158 -116.91015625 193.1328125 C-118.24212416 194.46750986 -119.57557856 195.80072469 -120.91015625 197.1328125 C-121.59722656 197.82117188 -122.28429687 198.50953125 -122.9921875 199.21875 C-124.51786908 200.74132429 -126.0557033 202.25171892 -127.59765625 203.7578125 C-129.99287682 206.14289972 -129.99287682 206.14289972 -132.22265625 209.0078125 C-134.82491755 212.20933271 -137.8695717 214.74753908 -141.00390625 217.4140625 C-143.11967909 219.24001779 -143.11967909 219.24001779 -145.41015625 222.1328125 C-148.04558167 225.295323 -150.88375162 227.81827272 -154.00390625 230.484375 C-156.43328279 232.58518832 -158.66760901 234.83420158 -160.91015625 237.1328125 C-162.24212416 238.46750986 -163.57557856 239.80072469 -164.91015625 241.1328125 C-165.59722656 241.82117188 -166.28429687 242.50953125 -166.9921875 243.21875 C-168.51786908 244.74132429 -170.0557033 246.25171892 -171.59765625 247.7578125 C-173.99287682 250.14289972 -173.99287682 250.14289972 -176.22265625 253.0078125 C-178.82491755 256.20933271 -181.8695717 258.74753908 -185.00390625 261.4140625 C-187.11967909 263.24001779 -187.11967909 263.24001779 -189.41015625 266.1328125 C-192.04558167 269.295323 -194.88375162 271.81827272 -198.00390625 274.484375 C-200.43328279 276.58518832 -202.66760901 278.83420158 -204.91015625 281.1328125 C-206.24212416 282.46750986 -207.57557856 283.80072469 -208.91015625 285.1328125 C-209.59722656 285.82117188 -210.28429687 286.50953125 -210.9921875 287.21875 C-212.51786908 288.74132429 -214.0557033 290.25171892 -215.59765625 291.7578125 C-217.99287682 294.14289972 -217.99287682 294.14289972 -220.22265625 297.0078125 C-222.82491755 300.20933271 -225.8695717 302.74753908 -229.00390625 305.4140625 C-231.11967909 307.24001779 -231.11967909 307.24001779 -233.41015625 310.1328125 C-236.04241865 313.29152738 -238.87749963 315.81183892 -241.9921875 318.4765625 C-245.39370717 321.41392368 -248.40671046 324.50690692 -251.22265625 328.0078125 C-253.82491755 331.20933271 -256.8695717 333.74753908 -260.00390625 336.4140625 C-262.11967909 338.24001779 -262.11967909 338.24001779 -264.41015625 341.1328125 C-267.04048641 344.28920869 -269.88536886 346.76097845 -273.00390625 349.4140625 C-275.11967909 351.24001779 -275.11967909 351.24001779 -277.41015625 354.1328125 C-280.04241865 357.29152738 -282.87749963 359.81183892 -285.9921875 362.4765625 C-289.41651691 365.43362089 -292.44160467 368.55328817 -295.28515625 372.0703125 C-297.13557276 374.34417855 -299.08824914 376.20319805 -301.34765625 378.0703125 C-303.78161416 380.0846225 -305.84258861 382.1293606 -307.84765625 384.5703125 C-310.61479923 387.92935772 -313.72775174 390.63867332 -317.0390625 393.44921875 C-319.12542115 395.24588148 -319.12542115 395.24588148 -321.41015625 398.1328125 C-324.04241865 401.29152738 -326.87749963 403.81183892 -329.9921875 406.4765625 C-333.41651691 409.43362089 -336.44160467 412.55328817 -339.28515625 416.0703125 C-341.13557276 418.34417855 -343.08824914 420.20319805 -345.34765625 422.0703125 C-347.78161416 424.0846225 -349.84258861 426.1293606 -351.84765625 428.5703125 C-354.61966622 431.92785398 -357.71680788 434.68615523 -361.0234375 437.5078125 C-364.23249489 440.27172114 -367.15233721 443.13980824 -369.72265625 446.5078125 C-371.6440822 448.81352363 -373.51058502 450.57421115 -375.78515625 452.5078125 C-378.40649279 454.7422359 -380.7255788 456.97073178 -382.91015625 459.6328125 C-385.60467241 462.90264427 -388.60651387 465.56745235 -391.828125 468.30859375 C-395.36412222 471.40673765 -398.61614121 474.78200409 -401.91015625 478.1328125 C-402.79703125 478.9990625 -403.68390625 479.8653125 -404.59765625 480.7578125 C-406.99287682 483.14289972 -406.99287682 483.14289972 -409.22265625 486.0078125 C-411.82034396 489.2037059 -414.85767294 491.73859735 -417.98828125 494.3984375 C-419.73243781 495.97243245 -421.19338093 497.55387043 -422.66015625 499.3828125 C-424.62849915 501.78856493 -426.28426054 503.50294619 -428.91015625 505.1328125 C-429.57015625 505.1328125 -430.23015625 505.1328125 -430.91015625 505.1328125 C-431.7025095 501.34128898 -432.49391081 497.54956734 -433.28515625 493.7578125 C-433.506875 492.69691406 -433.72859375 491.63601563 -433.95703125 490.54296875 C-434.40064254 488.41624404 -434.84236701 486.28912492 -435.28222656 484.16162109 C-435.6716707 482.28314367 -436.06592831 480.40564887 -436.46777344 478.52978516 C-437.80817596 472.14053314 -438.66549718 465.74141215 -439.41015625 459.2578125 C-439.60134033 457.61534546 -439.60134033 457.61534546 -439.79638672 455.93969727 C-440.17329338 452.6713509 -440.54242001 449.40220162 -440.91015625 446.1328125 C-441.01360352 445.23643066 -441.11705078 444.34004883 -441.22363281 443.41650391 C-447.87128975 385.40161314 -444.73552797 326.39735451 -433.91015625 269.1328125 C-433.59908936 267.4636377 -433.59908936 267.4636377 -433.28173828 265.76074219 C-422.7697417 210.11105506 -403.83969458 154.39076479 -377.89550781 104.05957031 C-376.83989379 101.99542118 -375.8063228 99.92129881 -374.77734375 97.84375 C-374.4230127 97.12888428 -374.06868164 96.41401855 -373.70361328 95.67749023 C-373.03433095 94.32592828 -372.36595527 92.97391676 -371.69873047 91.62133789 C-370.78436358 89.78371511 -369.84800865 87.95853462 -368.91015625 86.1328125 C-368.60263428 85.49480713 -368.2951123 84.85680176 -367.97827148 84.19946289 C-366.46146082 81.23854691 -365.29493883 79.36344118 -362.4140625 77.63671875 C-361.44339844 77.32605469 -360.47273437 77.01539063 -359.47265625 76.6953125 C-358.31121094 76.29828125 -357.14976562 75.90125 -355.953125 75.4921875 C-355.30778809 75.27884766 -354.66245117 75.06550781 -353.99755859 74.84570312 C-350.92196854 73.79532617 -347.89946383 72.61640944 -344.86865234 71.4440918 C-341.21329704 70.03093185 -337.54759157 68.64550909 -333.88232422 67.25830078 C-331.88847285 66.50327739 -329.89531567 65.74641842 -327.90283203 64.98779297 C-313.77541888 59.6192417 -299.56093817 54.59148882 -285.22265625 49.8203125 C-284.47587616 49.57164429 -283.72909607 49.32297607 -282.95968628 49.06677246 C-272.64521321 45.63899422 -262.29314379 42.34643358 -251.91015625 39.1328125 C-250.81445312 38.78742432 -249.71875 38.44203613 -248.58984375 38.08618164 C-240.02944299 35.4044593 -231.39591453 33.04028102 -222.72265625 30.7578125 C-221.97806152 30.56172394 -221.2334668 30.36563538 -220.46630859 30.16360474 C-161.04929339 14.55304529 -100.30713632 4.52670463 -38.9379425 1.349823 C-36.23722099 1.20777605 -33.53804629 1.04993347 -30.83892822 0.88020325 C-20.54876327 0.24525223 -10.30809867 -0.01637443 0 0 Z " fill="#0A0A0A" transform="translate(1052.91015625,302.8671875)"/>
<path d="M0 0 C0.78698212 10.85471256 1.1725435 21.65141631 1.203125 32.53515625 C1.21010827 34.08816045 1.21714918 35.64116439 1.22424316 37.19416809 C1.24357032 42.15028222 1.24842266 47.10635231 1.25 52.0625 C1.25088371 53.33119808 1.25088371 53.33119808 1.25178528 54.62552643 C1.26565608 82.85403439 0.56813871 110.87293031 -2 139 C-2.1462802 140.6589919 -2.29227788 142.31800874 -2.43798828 143.97705078 C-7.08063099 196.07925476 -16.61169279 247.45523319 -30 298 C-30.27457031 299.06250977 -30.54914063 300.12501953 -30.83203125 301.21972656 C-38.90905776 332.44054057 -49.42482878 363.31337308 -61.00244141 393.39941406 C-62.19592543 396.51076791 -63.3550492 399.63410079 -64.51171875 402.75927734 C-66.85729664 409.08396059 -69.25307327 415.39409879 -71.84106445 421.62426758 C-73.0354205 424.50260814 -74.09489604 427.32827857 -74.9609375 430.32421875 C-76.68068554 435.80677549 -78.44348575 439.16801769 -83.53637695 442.11425781 C-86.1735807 443.47435599 -88.85370821 444.70961352 -91.56738281 445.90917969 C-94.30950037 447.13878439 -97.00901774 448.4422744 -99.7109375 449.7578125 C-121.35194687 460.27410523 -143.23911242 470.17930446 -165.91601562 478.25634766 C-167.76485193 478.91608938 -169.60932742 479.58802348 -171.453125 480.26171875 C-174.28850343 481.29245415 -177.13072872 482.29984156 -179.97998047 483.29150391 C-181.40838138 483.79249731 -182.83426472 484.30069606 -184.25830078 484.81396484 C-224.92709494 499.42314333 -268.71520724 509.73320989 -311.77294922 513.69238281 C-315.34464452 514.03285309 -318.90714353 514.43602492 -322.47265625 514.8359375 C-341.86473173 516.90218338 -361.19316375 517.29459715 -380.6875 517.3125 C-381.90645966 517.31599457 -383.12541931 517.31948914 -384.38131714 517.3230896 C-401.01683942 517.34956389 -417.44252521 516.6016825 -434 515 C-435.29446045 514.87971436 -436.5889209 514.75942871 -437.92260742 514.63549805 C-440.8692251 514.34767628 -443.80933451 514.03042271 -446.75 513.6875 C-447.79381836 513.56632813 -448.83763672 513.44515625 -449.91308594 513.3203125 C-467.76030878 511.14806558 -485.44844038 507.867856 -503 504 C-502.41667867 500.4670283 -501.18354959 498.80857032 -498.67208821 496.29719138 C-497.59442304 495.20864472 -497.59442304 495.20864472 -496.49498686 494.09810722 C-495.69601285 493.30644255 -494.89703884 492.51477789 -494.07385349 491.69912338 C-493.229112 490.85032116 -492.38437051 490.00151894 -491.51403078 489.12699544 C-489.15490654 486.75960423 -486.78919185 484.39916064 -484.42053296 482.04133166 C-481.85018541 479.47946444 -479.2885181 476.90894295 -476.72575659 474.33949113 C-472.22877722 469.83319485 -467.7262181 465.33253407 -463.22000504 460.83547211 C-456.51935614 454.14839357 -449.82727701 447.4527883 -443.13691317 440.75542163 C-431.19004895 428.79661333 -419.23466815 416.84634792 -407.27577913 404.89956587 C-396.81154014 394.44584907 -386.35028919 383.98915322 -375.89199638 373.52948761 C-375.19918198 372.83658918 -374.50636758 372.14369075 -373.79255881 371.42979539 C-370.98046079 368.61734516 -368.16837867 365.80487903 -365.35631922 362.99239023 C-338.96048559 336.59258876 -312.55630888 310.20114624 -286.14811349 283.81371107 C-262.6656731 260.34964408 -239.18952284 236.8793022 -215.71899414 213.40332031 C-214.21181829 211.89579803 -212.70464227 210.38827591 -211.19746608 208.88075396 C-210.07980781 207.76283919 -210.07980781 207.76283919 -208.93957057 206.62234029 C-205.1891172 202.87103342 -201.43864897 199.11974141 -197.68816471 195.36846542 C-196.94831566 194.62845929 -196.20846661 193.88845316 -195.44619789 193.12602261 C-175.85578391 173.53162246 -156.2606444 153.94194932 -136.66398424 134.35379624 C-134.55648464 132.24720372 -132.44898575 130.14061048 -130.34148843 128.03401566 C-128.94332585 126.6364542 -127.54515951 125.23889648 -126.1469894 123.84134254 C-116.38303212 114.08161353 -106.62090616 104.32005608 -96.86001399 94.55726164 C-84.28495822 81.97976749 -71.7066759 69.40551533 -59.12259395 56.8370516 C-52.46117064 50.18370446 -45.80252 43.52761041 -39.14777155 36.86758685 C-34.71043692 32.42729003 -30.26951303 27.99060534 -25.82556426 23.55692813 C-23.28834166 21.02536831 -20.75276987 18.49221045 -18.22150005 15.95469734 C-15.50367978 13.23025408 -12.77828266 10.51347634 -10.05198765 7.79751205 C-8.85703838 6.59596806 -8.85703838 6.59596806 -7.63794872 5.37015045 C-6.91700176 4.65446675 -6.1960548 3.93878305 -5.45326096 3.20141196 C-4.82987416 2.57838442 -4.20648737 1.95535689 -3.56421006 1.31344973 C-2 0 -2 0 0 0 Z " fill="#0A0A0A" transform="translate(1195,375)"/>
<path d="M0 0 C0.99 0.33 1.98 0.66 3 1 C2.34546487 4.32309767 1.10018325 6.80660994 -0.625 9.7109375 C-1.43106689 11.07351685 -1.43106689 11.07351685 -2.25341797 12.46362305 C-2.82979004 13.42437744 -3.40616211 14.38513184 -4 15.375 C-4.58797363 16.36218018 -5.17594727 17.34936035 -5.78173828 18.36645508 C-10.36217008 26.02114065 -15.11958906 33.53413327 -20 41 C-21.12700726 42.79040472 -22.25207695 44.58203088 -23.375 46.375 C-33.398793 62.11029062 -44.26257602 77.49658471 -56 92 C-57.23498465 93.58526393 -58.46990764 95.17057643 -59.70361328 96.75683594 C-67.76576241 107.09886698 -76.18174679 117.08235342 -85.00390625 126.78515625 C-86.78942022 128.76634298 -88.52857687 130.77570164 -90.25 132.8125 C-92.71159089 135.69803154 -95.20180979 138.43499231 -98 141 C-98.66 141 -99.32 141 -100 141 C-100.20625 141.556875 -100.4125 142.11375 -100.625 142.6875 C-102.14841716 145.24961067 -103.98227393 146.69333245 -106.30078125 148.5234375 C-108.19857165 150.17255191 -109.75423194 151.95381498 -111.375 153.875 C-114.24178584 157.227893 -117.26098113 160.09644498 -120.625 162.94140625 C-122.51909475 164.58316271 -124.35896531 166.25193699 -126.1875 167.96484375 C-126.75388184 168.4949707 -127.32026367 169.02509766 -127.90380859 169.57128906 C-129.02431316 170.62345079 -130.14198332 171.67864189 -131.25634766 172.73730469 C-134.63444346 175.89929335 -138.11397184 178.46229755 -142 181 C-142.886875 181.9075 -143.77375 182.815 -144.6875 183.75 C-147 186 -147 186 -150 186 C-150 186.66 -150 187.32 -150 188 C-154.35294118 192 -154.35294118 192 -158 192 C-158 192.66 -158 193.32 -158 194 C-159.87109375 195.515625 -159.87109375 195.515625 -162.4375 197.25 C-163.81035156 198.18392578 -163.81035156 198.18392578 -165.2109375 199.13671875 C-166.13132812 199.75160156 -167.05171875 200.36648438 -168 201 C-169.16402344 201.78310547 -169.16402344 201.78310547 -170.3515625 202.58203125 C-171.82401791 203.56800404 -173.29928464 204.54979143 -174.77734375 205.52734375 C-176.2952375 206.53304839 -177.80806453 207.54643149 -179.31640625 208.56640625 C-183.18969491 211.18136763 -187.06536253 213.68454195 -191.15625 215.953125 C-193.28671799 217.1627975 -195.35529803 218.45903478 -197.4375 219.75 C-203.73568372 223.53652133 -210.29073664 226.76620319 -216.89550781 229.9765625 C-218.25866519 230.6394808 -219.62011469 231.30592733 -220.97949219 231.9765625 C-316.63613611 279.11033196 -431.44325393 282.12799976 -532.1875 249.0625 C-534.1277652 248.38284315 -536.06489701 247.6942182 -538 247 C-539.52038288 246.46876115 -541.04126372 245.93894638 -542.5625 245.41015625 C-546.00615984 244.21205724 -549.44743857 243.0074887 -552.88671875 241.796875 C-556.13645674 240.65300642 -559.3887325 239.51712158 -562.64453125 238.390625 C-574.38393208 234.3160492 -585.72048302 229.65229845 -596.98828125 224.3984375 C-599.44041051 223.25983533 -601.8996751 222.149228 -604.375 221.0625 C-605.06335938 220.753125 -605.75171875 220.44375 -606.4609375 220.125 C-607.91089533 219.48255714 -609.36385907 218.84659125 -610.82519531 218.23046875 C-612.89124382 217.35824779 -614.9454603 216.46145157 -617 215.5625 C-617.67208496 215.28607666 -618.34416992 215.00965332 -619.03662109 214.72485352 C-620.9375 213.87890625 -620.9375 213.87890625 -624 212 C-624.9375 209.27734375 -624.9375 209.27734375 -625 207 C-624.45806472 206.78310422 -623.91612944 206.56620844 -623.35777187 206.34274006 C-620.18808182 204.53761639 -617.81979984 202.08849826 -615.27565002 199.51615906 C-614.70814638 198.95036426 -614.14064273 198.38456946 -613.555942 197.80162936 C-611.65433475 195.9033179 -609.75996686 193.99794342 -607.86547852 192.0925293 C-606.50398997 190.73047663 -605.14206091 189.36886416 -603.77972412 188.00765991 C-600.0789702 184.30748073 -596.38442416 180.60115826 -592.69093823 176.89372611 C-588.82511774 173.01540645 -584.95363617 169.1427464 -581.08274841 165.26948547 C-573.74663698 157.92715231 -566.41563759 150.57973683 -559.08645242 143.23049051 C-550.76339407 134.88513915 -542.43471362 126.54540856 -534.10552704 118.20617425 C-519.86555776 103.94882954 -505.62982365 89.68726751 -491.39878845 75.42100525 C-490.797192 74.8179296 -490.19559554 74.21485396 -489.57576889 73.5935033 C-488.47208631 72.48708387 -487.36843416 71.38063409 -486.26482111 70.27414531 C-483.17886172 67.18044468 -480.09040678 64.08925775 -477 61 C-476.32408813 60.32408813 -475.64817627 59.64817627 -474.95178223 58.95178223 C-442.06835938 26.06835938 -442.06835938 26.06835938 -439.91088867 23.91870117 C-438.75708912 22.76018441 -437.61139588 21.59339974 -436.48168945 20.41137695 C-434.18771158 18.01972734 -432.20356962 16.00867252 -429 15 C-426.97680664 15.35766602 -426.97680664 15.35766602 -424.84765625 16.19140625 C-424.05891113 16.48418457 -423.27016602 16.77696289 -422.45751953 17.07861328 C-421.64653809 17.3826709 -420.83555664 17.68672852 -420 18 C-418.44031287 18.50126999 -416.87641829 18.98963669 -415.30859375 19.46484375 C-414.5182373 19.70525391 -413.72788086 19.94566406 -412.91357422 20.19335938 C-404.1042337 22.84085197 -395.29320203 25.33002311 -386.33886719 27.44189453 C-383.67206073 28.07825357 -381.01236433 28.74133805 -378.3515625 29.40234375 C-362.20978713 33.34053653 -346.02411677 36.07738174 -329.59765625 38.46899414 C-326.21044022 38.9689395 -322.83026347 39.50314024 -319.44921875 40.04296875 C-312.5290863 41.11004503 -305.59105977 41.86589402 -298.625 42.5625 C-297.44550781 42.68818359 -296.26601563 42.81386719 -295.05078125 42.94335938 C-275.91335223 44.87326906 -256.66040394 45.23630991 -237.4375 45.25 C-235.92987091 45.25151062 -235.92987091 45.25151062 -234.39178467 45.25305176 C-215.20168739 45.24022693 -196.23444379 44.19818791 -177.15142822 42.22137451 C-175.05516779 42.00567657 -172.95820829 41.79884893 -170.86083984 41.59423828 C-132.21248888 37.77687644 -93.55561042 30.23945756 -56.38671875 19.01953125 C-53.30434959 18.09162081 -50.2192998 17.17360833 -47.13269043 16.25994873 C-44.42008115 15.45678707 -41.70835839 14.65066162 -38.99682617 13.84387207 C-37.68207403 13.45285427 -36.3671371 13.06245716 -35.05200195 12.67272949 C-28.26909822 10.65980332 -21.59270649 8.56821428 -15 6 C-13.73230246 5.54434491 -12.46275097 5.09381511 -11.19140625 4.6484375 C-9.39509766 4.01808594 -9.39509766 4.01808594 -7.5625 3.375 C-5.73912109 2.73691406 -5.73912109 2.73691406 -3.87890625 2.0859375 C-1.14208243 1.27943032 -1.14208243 1.27943032 0 0 Z " fill="#0A0A0A" transform="translate(1057,927)"/>
<path d="M0 0 C0.66 0.33 1.32 0.66 2 1 C-0.32935464 9.22287234 -3.14062313 17.26904116 -5.95391846 25.3347168 C-19.73503001 64.98222349 -29.45100573 105.54601523 -36 147 C-36.16048828 147.98484375 -36.32097656 148.9696875 -36.48632812 149.984375 C-46.35173991 211.21186337 -44.76906116 274.81615826 -36 336 C-35.82267334 337.27423828 -35.64534668 338.54847656 -35.46264648 339.86132812 C-35.20076538 341.73401367 -35.20076538 341.73401367 -34.93359375 343.64453125 C-34.69854126 345.33412964 -34.69854126 345.33412964 -34.45874023 347.05786133 C-33.9997492 350.00160852 -33.34250327 352.84832134 -32.55859375 355.72265625 C-31.78061753 358.89440544 -31.21107963 362.10109412 -30.625 365.3125 C-29.45958423 371.63839492 -28.23354084 377.94949894 -26.9375 384.25 C-26.69410889 385.46490112 -26.69410889 385.46490112 -26.44580078 386.7043457 C-26.28708496 387.46706787 -26.12836914 388.22979004 -25.96484375 389.015625 C-25.8268335 389.68883789 -25.68882324 390.36205078 -25.54663086 391.05566406 C-24.94201422 393.20625224 -24.01994912 395.01703149 -23 397 C-22.45582944 398.90459694 -21.95924632 400.82316219 -21.5 402.75 C-21.2628125 403.73484375 -21.025625 404.7196875 -20.78125 405.734375 C-20.21184476 408.11448891 -19.64289639 410.49471214 -19.07421875 412.875 C-17.84474703 417.78585465 -16.23324555 422.56511595 -14.59179688 427.3515625 C-12.4462179 433.92043187 -12.4462179 433.92043187 -14 437 C-15.56640625 438.640625 -15.56640625 438.640625 -17.5625 440.25 C-21.97081036 443.93149216 -25.97655052 447.9071807 -30 452 C-30.886875 452.86625 -31.77375 453.7325 -32.6875 454.625 C-35.08272057 457.01008722 -35.08272057 457.01008722 -37.3125 459.875 C-39.9147613 463.07652021 -42.95941545 465.61472658 -46.09375 468.28125 C-48.20952284 470.10720529 -48.20952284 470.10720529 -50.5 473 C-53.13542542 476.1625105 -55.97359537 478.68546022 -59.09375 481.3515625 C-61.52312654 483.45237582 -63.75745276 485.70138908 -66 488 C-67.33196791 489.33469736 -68.66542231 490.66791219 -70 492 C-70.68707031 492.68835938 -71.37414062 493.37671875 -72.08203125 494.0859375 C-73.60771283 495.60851179 -75.14554705 497.11890642 -76.6875 498.625 C-79.08272057 501.01008722 -79.08272057 501.01008722 -81.3125 503.875 C-83.9147613 507.07652021 -86.95941545 509.61472658 -90.09375 512.28125 C-92.20952284 514.10720529 -92.20952284 514.10720529 -94.5 517 C-97.1322624 520.15871488 -99.96734338 522.67902642 -103.08203125 525.34375 C-106.50636066 528.30080839 -109.53144842 531.42047567 -112.375 534.9375 C-114.22541651 537.21136605 -116.17809289 539.07038555 -118.4375 540.9375 C-120.87145791 542.95181 -122.93243236 544.9965481 -124.9375 547.4375 C-127.70950997 550.79504148 -130.80665163 553.55334273 -134.11328125 556.375 C-137.32233864 559.13890864 -140.24218096 562.00699574 -142.8125 565.375 C-144.73392595 567.68071113 -146.60042877 569.44139865 -148.875 571.375 C-152.11580573 574.13657383 -154.80697771 577.03477776 -157.50390625 580.31640625 C-159.56065616 582.63092116 -161.90143171 584.50621391 -164.28515625 586.47265625 C-166.02408146 588.0214484 -167.46019669 589.63991412 -168.9375 591.4375 C-171.70464298 594.79654522 -174.81759549 597.50586082 -178.12890625 600.31640625 C-180.2152649 602.11306898 -180.2152649 602.11306898 -182.5 605 C-185.1291993 608.15503916 -187.9722303 610.62591549 -191.08984375 613.27734375 C-193.68313678 615.61608041 -195.77241433 618.31547368 -198 621 C-199.80909947 622.62315348 -201.65714262 624.17490664 -203.546875 625.703125 C-205.13287611 626.95780703 -205.13287611 626.95780703 -206 629 C-209 628 -209 628 -210.54296875 625.28564453 C-211.10223934 624.07308926 -211.64954659 622.85497452 -212.1875 621.6328125 C-212.63563301 620.64717064 -212.63563301 620.64717064 -213.09281921 619.64161682 C-214.07359384 617.47446801 -215.0376544 615.30038925 -216 613.125 C-216.67796973 611.60775211 -217.35611273 610.09058163 -218.03442383 608.57348633 C-220.04522482 604.05864189 -222.02718902 599.53155219 -224 595 C-224.52255371 593.80262207 -225.04510742 592.60524414 -225.58349609 591.37158203 C-251.10345461 532.31359939 -265.54668083 469.24809975 -268 405 C-268.05196533 403.70304199 -268.05196533 403.70304199 -268.10498047 402.37988281 C-268.28231373 397.24052265 -268.21022627 392.13734331 -268 387 C-267.95891113 385.9471582 -267.91782227 384.89431641 -267.87548828 383.80957031 C-265.66153139 332.35806093 -254.94325463 282.50865528 -234.0390625 235.34594727 C-233.36580595 233.82589977 -232.69873367 232.30309198 -232.0390625 230.77709961 C-225.09188507 214.81454167 -216.58158288 199.52118234 -207 185 C-206.30132812 183.93652344 -205.60265625 182.87304688 -204.8828125 181.77734375 C-203.581199 179.81479421 -202.27176119 177.85740274 -200.953125 175.90625 C-199.54645414 173.81312377 -198.16272687 171.71309283 -196.796875 169.59375 C-196.08015625 168.4903125 -195.3634375 167.386875 -194.625 166.25 C-193.97789062 165.24453125 -193.33078125 164.2390625 -192.6640625 163.203125 C-192.11492187 162.47609375 -191.56578125 161.7490625 -191 161 C-190.34 161 -189.68 161 -189 161 C-188.79375 160.34 -188.5875 159.68 -188.375 159 C-186.50875748 154.92819814 -184.02438473 151.31203002 -181 148 C-180.34 148 -179.68 148 -179 148 C-178.62875 147.195625 -178.62875 147.195625 -178.25 146.375 C-175.48957675 141.13019582 -172.19030659 137.1479191 -168 133 C-166.1757235 131.05091855 -164.36246505 129.09611962 -162.5625 127.125 C-161.83691895 126.33391846 -161.83691895 126.33391846 -161.09667969 125.52685547 C-158.58335197 122.77605462 -156.12638596 119.99459814 -153.75 117.125 C-151.3245791 114.23958548 -148.61678116 111.92128336 -145.71484375 109.52734375 C-143.97591854 107.9785516 -142.53980331 106.36008588 -141.0625 104.5625 C-138.32254294 101.24686047 -135.27574149 98.53137037 -132.00390625 95.75 C-130.08033286 94.07015423 -128.28686504 92.32349781 -126.5 90.5 C-122.86184814 86.81166673 -119.13704838 83.12894004 -115 80 C-114.34 80 -113.68 80 -113 80 C-112.67 79.01 -112.34 78.02 -112 77 C-110.5390625 75.7109375 -110.5390625 75.7109375 -108.625 74.375 C-105.16733226 71.88226279 -101.84988739 69.27655963 -98.5625 66.5625 C-90.8282248 60.19872136 -82.89159424 54.13731338 -74.8671875 48.14453125 C-73.1175511 46.8358795 -71.37174047 45.5220666 -69.6328125 44.19921875 C-68.60800781 43.41998047 -68.60800781 43.41998047 -67.5625 42.625 C-66.98628906 42.18414062 -66.41007813 41.74328125 -65.81640625 41.2890625 C-64 40 -64 40 -61.60546875 38.578125 C-58.84996052 36.90912151 -56.32488763 35.05993018 -53.75 33.125 C-49.57324043 30.05036237 -45.38148428 27.3889774 -40.77734375 25.0078125 C-38.83072463 24.00827054 -38.83072463 24.00827054 -37 22 C-36.01 22 -35.02 22 -34 22 C-34 21.34 -34 20.68 -34 20 C-31.54928336 18.40504048 -29.10437326 16.93735733 -26.5625 15.5 C-25.0101148 14.60859842 -23.45804082 13.71665466 -21.90625 12.82421875 C-21.10058594 12.36321777 -20.29492188 11.9022168 -19.46484375 11.42724609 C-17.01103349 10.00638884 -14.58130273 8.5513569 -12.15625 7.08203125 C-11.38595459 6.61796875 -10.61565918 6.15390625 -9.82202148 5.67578125 C-8.33123306 4.77631474 -6.84367481 3.87146972 -5.35961914 2.9609375 C-3.60820419 1.9128928 -1.80776915 0.94753507 0 0 Z " fill="#0A0A0A" transform="translate(571,439)"/>
<path d="" fill="#0A0A0A" transform="translate(0,0)"/>
<path d="" fill="#0A0A0A" transform="translate(0,0)"/>
<path d="" fill="#0A0A0A" transform="translate(0,0)"/>
<path d="" fill="#0A0A0A" transform="translate(0,0)"/>
</svg>
